<svg width="34" height="34" viewBox="0 0 34 34" fill="none" xmlns="http://www.w3.org/2000/svg">
<g clip-path="url(#clip0_38_61)">
<path d="M24.5001 4.00676C22.2938 2.73049 19.7322 2.00003 17.0001 2.00003C8.71585 2.00003 2.00012 8.71576 2.00012 17C2.00012 19.3996 2.56355 21.6674 3.56531 23.6788C3.83153 24.2132 3.92014 24.8242 3.7658 25.4009L2.87239 28.7401C2.48455 30.1895 3.81064 31.5155 5.26015 31.1278L8.59921 30.2344C9.17602 30.08 9.78694 30.1687 10.3214 30.4348C12.3327 31.4366 14.6006 32 17.0001 32C25.2843 32 32.0001 25.2842 32.0001 17C32.0001 14.2679 31.2696 11.7063 29.9934 9.50003" stroke="#1C1C1C" stroke-width="3" stroke-linecap="round"/>
<path d="M10.0001 17H10.0151M16.6501 17H16.6651M23.3151 17H23.3301" stroke="#1C1C1C" stroke-width="3" stroke-linecap="round" stroke-linejoin="round"/>
</g>
<defs>
<clipPath id="clip0_38_61">
<rect width="34" height="34" fill="white"/>
</clipPath>
</defs>
</svg>
