<svg width="350" height="408" viewBox="0 0 350 408" fill="none" xmlns="http://www.w3.org/2000/svg">
<g clip-path="url(#clip0_118_504)">
<path d="M290.155 203.332C290.155 183.541 286.115 163.958 278.282 145.786C270.449 127.615 258.988 111.238 244.604 97.6603C230.22 84.0829 213.216 73.5919 194.635 66.8313C176.055 60.0706 156.29 57.1831 136.555 58.3458C116.819 59.5085 97.5291 64.697 79.869 73.5927C62.2088 82.4885 46.5512 94.9038 33.8572 110.076C21.1632 125.249 11.7008 142.859 6.05086 161.825C0.400894 180.791 -1.31743 200.713 1.00144 220.368L46.0253 215.044C44.431 201.531 45.6124 187.835 49.4968 174.796C53.3811 161.757 59.8865 149.65 68.6136 139.219C77.3408 128.788 88.1054 120.252 100.247 114.136C112.388 108.02 125.65 104.453 139.218 103.654C152.786 102.855 166.375 104.84 179.149 109.488C191.923 114.136 203.613 121.348 213.502 130.683C223.391 140.017 231.27 151.276 236.656 163.769C242.041 176.262 244.819 189.726 244.819 203.332H290.155Z" fill="#40FF9F" stroke="white"/>
<path d="M1.00146 220.368C4.97298 254.03 20.5808 285.242 45.1213 308.596C69.6617 331.951 101.589 345.976 135.373 348.244C169.156 350.512 202.668 340.878 230.103 321.012C257.538 301.147 277.168 272.3 285.593 239.47L241.682 228.177C235.89 250.748 222.394 270.58 203.533 284.237C184.671 297.895 161.632 304.518 138.405 302.959C115.179 301.4 93.2292 291.757 76.3577 275.701C59.4861 259.645 48.7557 238.187 46.0253 215.044L1.00146 220.368Z" fill="#FDF077" stroke="white"/>
<path d="M285.593 239.47C288.623 227.663 290.156 215.522 290.156 203.332H244.819C244.819 211.713 243.765 220.06 241.682 228.177L285.593 239.47Z" fill="#FF6435" stroke="white"/>
<path d="M136.555 58.3458L134.424 22.0992L136.555 58.3458Z" fill="#1C1C1C"/>
<path d="M136.555 58.3458L134.424 22.0992" stroke="#1C1C1C"/>
<mask id="path-6-inside-1_118_504" fill="white">
<path d="M107.014 3.2856V11.3136H105.946V4.4136L104.278 5.5416L103.786 4.8216L106.066 3.2856H107.014ZM111.294 3.1536C112.102 3.1536 112.714 3.5016 113.13 4.1976C113.546 4.8936 113.754 5.9296 113.754 7.3056C113.754 8.6976 113.546 9.7416 113.13 10.4376C112.714 11.1256 112.102 11.4696 111.294 11.4696C110.478 11.4696 109.862 11.1216 109.446 10.4256C109.03 9.7296 108.822 8.6896 108.822 7.3056C108.822 4.5376 109.646 3.1536 111.294 3.1536ZM111.294 3.9936C110.83 3.9936 110.486 4.2496 110.262 4.7616C110.046 5.2656 109.938 6.1136 109.938 7.3056C109.938 8.5056 110.046 9.3576 110.262 9.8616C110.486 10.3656 110.83 10.6176 111.294 10.6176C111.75 10.6176 112.086 10.3656 112.302 9.8616C112.526 9.3576 112.638 8.5056 112.638 7.3056C112.638 6.1056 112.53 5.2536 112.314 4.7496C112.098 4.2456 111.758 3.9936 111.294 3.9936ZM119.704 3.1536C120.144 3.1536 120.528 3.2456 120.856 3.4296C121.184 3.6056 121.436 3.8496 121.612 4.1616C121.788 4.4656 121.876 4.8016 121.876 5.1696C121.876 5.6816 121.744 6.0976 121.48 6.4176C121.216 6.7296 120.84 6.9416 120.352 7.0536C120.88 7.1016 121.304 7.2936 121.624 7.6296C121.944 7.9656 122.104 8.4336 122.104 9.0336C122.104 9.4896 122 9.9016 121.792 10.2696C121.592 10.6376 121.3 10.9296 120.916 11.1456C120.54 11.3616 120.1 11.4696 119.596 11.4696C119.132 11.4696 118.716 11.3816 118.348 11.2056C117.988 11.0216 117.656 10.7456 117.352 10.3776L118 9.8256C118.248 10.0976 118.492 10.2976 118.732 10.4256C118.98 10.5456 119.256 10.6056 119.56 10.6056C120 10.6056 120.348 10.4656 120.604 10.1856C120.868 9.8976 121 9.5056 121 9.0096C121 8.4816 120.868 8.1016 120.604 7.8696C120.348 7.6296 119.976 7.5096 119.488 7.5096H118.984L119.116 6.7056H119.452C119.852 6.7056 120.18 6.5816 120.436 6.3336C120.7 6.0856 120.832 5.7296 120.832 5.2656C120.832 4.8656 120.72 4.5536 120.496 4.3296C120.28 4.1056 119.98 3.9936 119.596 3.9936C119.316 3.9936 119.056 4.0496 118.816 4.1616C118.584 4.2736 118.348 4.4496 118.108 4.6896L117.544 4.1136C118.168 3.4736 118.888 3.1536 119.704 3.1536ZM127.266 4.1256H124.458V6.5256C124.834 6.3016 125.226 6.1896 125.634 6.1896C126.25 6.1896 126.746 6.4136 127.122 6.8616C127.498 7.3096 127.686 7.9296 127.686 8.7216C127.686 9.2576 127.578 9.7336 127.362 10.1496C127.154 10.5656 126.858 10.8896 126.474 11.1216C126.09 11.3536 125.642 11.4696 125.13 11.4696C124.674 11.4696 124.27 11.3816 123.918 11.2056C123.574 11.0296 123.246 10.7696 122.934 10.4256L123.57 9.8496C123.802 10.0976 124.038 10.2856 124.278 10.4136C124.518 10.5336 124.794 10.5936 125.106 10.5936C125.57 10.5936 125.93 10.4336 126.186 10.1136C126.442 9.7856 126.57 9.3176 126.57 8.7096C126.57 7.5656 126.138 6.9936 125.274 6.9936C125.082 6.9936 124.906 7.0216 124.746 7.0776C124.586 7.1256 124.406 7.2056 124.206 7.3176H123.426V3.2856H127.41L127.266 4.1256ZM131.298 3.1536C132.106 3.1536 132.718 3.5016 133.134 4.1976C133.55 4.8936 133.758 5.9296 133.758 7.3056C133.758 8.6976 133.55 9.7416 133.134 10.4376C132.718 11.1256 132.106 11.4696 131.298 11.4696C130.482 11.4696 129.866 11.1216 129.45 10.4256C129.034 9.7296 128.826 8.6896 128.826 7.3056C128.826 4.5376 129.65 3.1536 131.298 3.1536ZM131.298 3.9936C130.834 3.9936 130.49 4.2496 130.266 4.7616C130.05 5.2656 129.942 6.1136 129.942 7.3056C129.942 8.5056 130.05 9.3576 130.266 9.8616C130.49 10.3656 130.834 10.6176 131.298 10.6176C131.754 10.6176 132.09 10.3656 132.306 9.8616C132.53 9.3576 132.642 8.5056 132.642 7.3056C132.642 6.1056 132.534 5.2536 132.318 4.7496C132.102 4.2456 131.762 3.9936 131.298 3.9936Z"/>
</mask>
<path d="M107.014 3.2856V11.3136H105.946V4.4136L104.278 5.5416L103.786 4.8216L106.066 3.2856H107.014ZM111.294 3.1536C112.102 3.1536 112.714 3.5016 113.13 4.1976C113.546 4.8936 113.754 5.9296 113.754 7.3056C113.754 8.6976 113.546 9.7416 113.13 10.4376C112.714 11.1256 112.102 11.4696 111.294 11.4696C110.478 11.4696 109.862 11.1216 109.446 10.4256C109.03 9.7296 108.822 8.6896 108.822 7.3056C108.822 4.5376 109.646 3.1536 111.294 3.1536ZM111.294 3.9936C110.83 3.9936 110.486 4.2496 110.262 4.7616C110.046 5.2656 109.938 6.1136 109.938 7.3056C109.938 8.5056 110.046 9.3576 110.262 9.8616C110.486 10.3656 110.83 10.6176 111.294 10.6176C111.75 10.6176 112.086 10.3656 112.302 9.8616C112.526 9.3576 112.638 8.5056 112.638 7.3056C112.638 6.1056 112.53 5.2536 112.314 4.7496C112.098 4.2456 111.758 3.9936 111.294 3.9936ZM119.704 3.1536C120.144 3.1536 120.528 3.2456 120.856 3.4296C121.184 3.6056 121.436 3.8496 121.612 4.1616C121.788 4.4656 121.876 4.8016 121.876 5.1696C121.876 5.6816 121.744 6.0976 121.48 6.4176C121.216 6.7296 120.84 6.9416 120.352 7.0536C120.88 7.1016 121.304 7.2936 121.624 7.6296C121.944 7.9656 122.104 8.4336 122.104 9.0336C122.104 9.4896 122 9.9016 121.792 10.2696C121.592 10.6376 121.3 10.9296 120.916 11.1456C120.54 11.3616 120.1 11.4696 119.596 11.4696C119.132 11.4696 118.716 11.3816 118.348 11.2056C117.988 11.0216 117.656 10.7456 117.352 10.3776L118 9.8256C118.248 10.0976 118.492 10.2976 118.732 10.4256C118.98 10.5456 119.256 10.6056 119.56 10.6056C120 10.6056 120.348 10.4656 120.604 10.1856C120.868 9.8976 121 9.5056 121 9.0096C121 8.4816 120.868 8.1016 120.604 7.8696C120.348 7.6296 119.976 7.5096 119.488 7.5096H118.984L119.116 6.7056H119.452C119.852 6.7056 120.18 6.5816 120.436 6.3336C120.7 6.0856 120.832 5.7296 120.832 5.2656C120.832 4.8656 120.72 4.5536 120.496 4.3296C120.28 4.1056 119.98 3.9936 119.596 3.9936C119.316 3.9936 119.056 4.0496 118.816 4.1616C118.584 4.2736 118.348 4.4496 118.108 4.6896L117.544 4.1136C118.168 3.4736 118.888 3.1536 119.704 3.1536ZM127.266 4.1256H124.458V6.5256C124.834 6.3016 125.226 6.1896 125.634 6.1896C126.25 6.1896 126.746 6.4136 127.122 6.8616C127.498 7.3096 127.686 7.9296 127.686 8.7216C127.686 9.2576 127.578 9.7336 127.362 10.1496C127.154 10.5656 126.858 10.8896 126.474 11.1216C126.09 11.3536 125.642 11.4696 125.13 11.4696C124.674 11.4696 124.27 11.3816 123.918 11.2056C123.574 11.0296 123.246 10.7696 122.934 10.4256L123.57 9.8496C123.802 10.0976 124.038 10.2856 124.278 10.4136C124.518 10.5336 124.794 10.5936 125.106 10.5936C125.57 10.5936 125.93 10.4336 126.186 10.1136C126.442 9.7856 126.57 9.3176 126.57 8.7096C126.57 7.5656 126.138 6.9936 125.274 6.9936C125.082 6.9936 124.906 7.0216 124.746 7.0776C124.586 7.1256 124.406 7.2056 124.206 7.3176H123.426V3.2856H127.41L127.266 4.1256ZM131.298 3.1536C132.106 3.1536 132.718 3.5016 133.134 4.1976C133.55 4.8936 133.758 5.9296 133.758 7.3056C133.758 8.6976 133.55 9.7416 133.134 10.4376C132.718 11.1256 132.106 11.4696 131.298 11.4696C130.482 11.4696 129.866 11.1216 129.45 10.4256C129.034 9.7296 128.826 8.6896 128.826 7.3056C128.826 4.5376 129.65 3.1536 131.298 3.1536ZM131.298 3.9936C130.834 3.9936 130.49 4.2496 130.266 4.7616C130.05 5.2656 129.942 6.1136 129.942 7.3056C129.942 8.5056 130.05 9.3576 130.266 9.8616C130.49 10.3656 130.834 10.6176 131.298 10.6176C131.754 10.6176 132.09 10.3656 132.306 9.8616C132.53 9.3576 132.642 8.5056 132.642 7.3056C132.642 6.1056 132.534 5.2536 132.318 4.7496C132.102 4.2456 131.762 3.9936 131.298 3.9936Z" fill="#1C1C1C"/>
<path d="M107.014 3.2856H108.014V2.2856H107.014V3.2856ZM107.014 11.3136V12.3136H108.014V11.3136H107.014ZM105.946 11.3136H104.946V12.3136H105.946V11.3136ZM105.946 4.4136H106.946V2.53014L105.386 3.58523L105.946 4.4136ZM104.278 5.5416L103.453 6.10579L104.014 6.92745L104.838 6.36996L104.278 5.5416ZM103.786 4.8216L103.227 3.99224L102.393 4.55467L102.961 5.38579L103.786 4.8216ZM106.066 3.2856V2.2856H105.761L105.507 2.45624L106.066 3.2856ZM106.014 3.2856V11.3136H108.014V3.2856H106.014ZM107.014 10.3136H105.946V12.3136H107.014V10.3136ZM106.946 11.3136V4.4136H104.946V11.3136H106.946ZM105.386 3.58523L103.718 4.71323L104.838 6.36996L106.506 5.24196L105.386 3.58523ZM105.104 4.97741L104.612 4.25741L102.961 5.38579L103.453 6.10579L105.104 4.97741ZM104.345 5.65095L106.625 4.11495L105.507 2.45624L103.227 3.99224L104.345 5.65095ZM106.066 4.2856H107.014V2.2856H106.066V4.2856ZM113.13 4.1976L113.988 3.68455V3.68455L113.13 4.1976ZM113.13 10.4376L113.986 10.955L113.988 10.9506L113.13 10.4376ZM109.446 10.4256L108.588 10.9386L109.446 10.4256ZM110.262 4.7616L109.346 4.36077L109.343 4.36768L110.262 4.7616ZM110.262 9.8616L109.343 10.2556L109.348 10.2677L110.262 9.8616ZM112.302 9.8616L111.388 9.45542L111.383 9.46768L112.302 9.8616ZM112.314 4.7496L113.233 4.35568L112.314 4.7496ZM111.294 4.1536C111.749 4.1536 112.035 4.31536 112.272 4.71064L113.988 3.68455C113.393 2.68784 112.455 2.1536 111.294 2.1536V4.1536ZM112.272 4.71064C112.551 5.17797 112.754 5.99913 112.754 7.3056H114.754C114.754 5.86007 114.541 4.60922 113.988 3.68455L112.272 4.71064ZM112.754 7.3056C112.754 8.63064 112.55 9.45852 112.272 9.92455L113.988 10.9506C114.542 10.0247 114.754 8.76455 114.754 7.3056H112.754ZM112.274 9.92018C112.04 10.3068 111.754 10.4696 111.294 10.4696V12.4696C112.45 12.4696 113.387 11.9444 113.986 10.955L112.274 9.92018ZM111.294 10.4696C110.827 10.4696 110.538 10.3042 110.304 9.91255L108.588 10.9386C109.186 11.939 110.129 12.4696 111.294 12.4696V10.4696ZM110.304 9.91255C110.025 9.44588 109.822 8.62136 109.822 7.3056H107.822C107.822 8.75784 108.035 10.0133 108.588 10.9386L110.304 9.91255ZM109.822 7.3056C109.822 5.98815 110.024 5.16562 110.299 4.70317C110.526 4.32255 110.812 4.1536 111.294 4.1536V2.1536C110.128 2.1536 109.178 2.67664 108.581 3.68003C108.032 4.60157 107.822 5.85505 107.822 7.3056H109.822ZM111.294 2.9936C110.866 2.9936 110.45 3.11622 110.091 3.38337C109.743 3.64201 109.507 3.99253 109.346 4.36078L111.178 5.16242C111.241 5.01867 111.289 4.98519 111.285 4.98783C111.283 4.98944 111.277 4.9929 111.271 4.9949C111.265 4.99664 111.271 4.9936 111.294 4.9936V2.9936ZM109.343 4.36768C109.04 5.07337 108.938 6.10023 108.938 7.3056H110.938C110.938 6.12697 111.052 5.45783 111.181 5.15552L109.343 4.36768ZM108.938 7.3056C108.938 8.51787 109.04 9.54937 109.343 10.2555L111.181 9.46768C111.052 9.16583 110.938 8.49333 110.938 7.3056H108.938ZM109.348 10.2677C109.511 10.6335 109.749 10.9802 110.097 11.2353C110.456 11.4981 110.869 11.6176 111.294 11.6176V9.6176C111.269 9.6176 111.262 9.61439 111.266 9.6157C111.271 9.61727 111.277 9.62027 111.279 9.6219C111.283 9.62495 111.237 9.59372 111.176 9.45546L109.348 10.2677ZM111.294 11.6176C111.719 11.6176 112.132 11.4957 112.488 11.2286C112.833 10.9701 113.065 10.6206 113.221 10.2555L111.383 9.46768C111.323 9.6066 111.279 9.63505 111.288 9.6286C111.293 9.62508 111.301 9.62027 111.31 9.61742C111.318 9.61485 111.315 9.6176 111.294 9.6176V11.6176ZM113.216 10.2677C113.532 9.55635 113.638 8.51902 113.638 7.3056H111.638C111.638 8.49217 111.52 9.15885 111.388 9.45546L113.216 10.2677ZM113.638 7.3056C113.638 6.09333 113.536 5.06183 113.233 4.35568L111.395 5.14352C111.524 5.44536 111.638 6.11787 111.638 7.3056H113.638ZM113.233 4.35568C113.076 3.98796 112.841 3.63741 112.492 3.37921C112.133 3.11313 111.719 2.9936 111.294 2.9936V4.9936C111.319 4.9936 111.325 4.99682 111.32 4.99507C111.313 4.99303 111.306 4.98915 111.302 4.98599C111.293 4.97978 111.336 5.00724 111.395 5.14352L113.233 4.35568ZM120.856 3.4296L120.367 4.30174L120.375 4.30633L120.383 4.31076L120.856 3.4296ZM121.612 4.1616L120.741 4.65295L120.747 4.66263L121.612 4.1616ZM121.48 6.4176L122.243 7.06359L122.251 7.05398L121.48 6.4176ZM120.352 7.0536L120.128 6.07894L120.261 8.04949L120.352 7.0536ZM121.624 7.6296L120.9 8.31925L121.624 7.6296ZM121.792 10.2696L120.921 9.77754L120.917 9.78478L120.913 9.79209L121.792 10.2696ZM120.916 11.1456L120.426 10.274L120.418 10.2785L120.916 11.1456ZM118.348 11.2056L117.893 12.096L117.905 12.102L117.917 12.1077L118.348 11.2056ZM117.352 10.3776L116.704 9.61635L115.954 10.2551L116.581 11.0145L117.352 10.3776ZM118 9.8256L118.739 9.15184L118.088 8.43739L117.352 9.06435L118 9.8256ZM118.732 10.4256L118.261 11.308L118.279 11.3172L118.296 11.3258L118.732 10.4256ZM120.604 10.1856L119.867 9.50987L119.866 9.51083L120.604 10.1856ZM120.604 7.8696L119.92 8.59914L119.932 8.61014L119.944 8.62076L120.604 7.8696ZM118.984 7.5096L117.997 7.34759L117.806 8.5096H118.984V7.5096ZM119.116 6.7056V5.7056H118.267L118.129 6.54359L119.116 6.7056ZM120.436 6.3336L119.751 5.60475L119.746 5.61001L119.74 5.61536L120.436 6.3336ZM120.496 4.3296L119.776 5.02373L119.782 5.03028L119.789 5.03671L120.496 4.3296ZM118.816 4.1616L118.393 3.25534L118.381 3.26105L118.816 4.1616ZM118.108 4.6896L117.394 5.38922L118.101 6.11129L118.815 5.39671L118.108 4.6896ZM117.544 4.1136L116.828 3.4155L116.146 4.11509L116.83 4.81322L117.544 4.1136ZM119.704 4.1536C120.002 4.1536 120.212 4.21483 120.367 4.30174L121.345 2.55746C120.844 2.27637 120.286 2.1536 119.704 2.1536V4.1536ZM120.383 4.31076C120.551 4.40085 120.662 4.51263 120.741 4.65292L122.483 3.67028C122.21 3.18656 121.817 2.81034 121.329 2.54844L120.383 4.31076ZM120.747 4.66263C120.83 4.80699 120.876 4.96882 120.876 5.1696H122.876C122.876 4.63438 122.746 4.1242 122.477 3.66056L120.747 4.66263ZM120.876 5.1696C120.876 5.50547 120.793 5.67933 120.709 5.78122L122.251 7.05398C122.695 6.51587 122.876 5.85773 122.876 5.1696H120.876ZM120.717 5.77166C120.621 5.88434 120.454 6.00418 120.128 6.07894L120.576 8.02826C121.226 7.87902 121.811 7.57486 122.243 7.06354L120.717 5.77166ZM120.261 8.04949C120.585 8.07889 120.771 8.18367 120.9 8.31925L122.348 6.93994C121.837 6.40352 121.175 6.12431 120.443 6.05771L120.261 8.04949ZM120.9 8.31925C120.995 8.41961 121.104 8.61237 121.104 9.0336H123.104C123.104 8.25483 122.893 7.51159 122.348 6.93994L120.9 8.31925ZM121.104 9.0336C121.104 9.33116 121.038 9.57139 120.921 9.77754L122.663 10.7617C122.962 10.2318 123.104 9.64804 123.104 9.0336H121.104ZM120.913 9.79209C120.808 9.98605 120.655 10.1452 120.426 10.274L121.406 12.0172C121.945 11.714 122.376 11.2891 122.671 10.7471L120.913 9.79209ZM120.418 10.2785C120.217 10.3942 119.954 10.4696 119.596 10.4696V12.4696C120.246 12.4696 120.864 12.329 121.414 12.0127L120.418 10.2785ZM119.596 10.4696C119.261 10.4696 118.995 10.4067 118.779 10.3035L117.917 12.1077C118.437 12.3565 119.003 12.4696 119.596 12.4696V10.4696ZM118.803 10.3152C118.585 10.2034 118.356 10.0223 118.123 9.74072L116.581 11.0145C116.956 11.4689 117.392 11.8398 117.893 12.096L118.803 10.3152ZM118 11.1388L118.648 10.5868L117.352 9.06435L116.704 9.61635L118 11.1388ZM117.261 10.4994C117.561 10.8279 117.892 11.111 118.261 11.308L119.203 9.54325C119.092 9.4842 118.935 9.36732 118.739 9.15184L117.261 10.4994ZM118.296 11.3258C118.694 11.518 119.121 11.6056 119.56 11.6056V9.6056C119.391 9.6056 119.266 9.57318 119.168 9.52544L118.296 11.3258ZM119.56 11.6056C120.232 11.6056 120.866 11.3813 121.342 10.8604L119.866 9.51083C119.83 9.54988 119.768 9.6056 119.56 9.6056V11.6056ZM121.341 10.8613C121.816 10.3431 122 9.68585 122 9.0096H120C120 9.32535 119.92 9.45208 119.867 9.50987L121.341 10.8613ZM122 9.0096C122 8.33963 121.834 7.61893 121.264 7.11843L119.944 8.62076C119.902 8.58427 120 8.62357 120 9.0096H122ZM121.288 7.14006C120.785 6.66822 120.13 6.5096 119.488 6.5096V8.5096C119.822 8.5096 119.911 8.59098 119.92 8.59914L121.288 7.14006ZM119.488 6.5096H118.984V8.5096H119.488V6.5096ZM119.971 7.67161L120.103 6.86761L118.129 6.54359L117.997 7.34759L119.971 7.67161ZM119.116 7.7056H119.452V5.7056H119.116V7.7056ZM119.452 7.7056C120.077 7.7056 120.666 7.50322 121.132 7.05184L119.74 5.61536C119.694 5.65998 119.627 5.7056 119.452 5.7056V7.7056ZM121.121 7.06245C121.639 6.57576 121.832 5.92358 121.832 5.2656H119.832C119.832 5.53562 119.761 5.59544 119.751 5.60475L121.121 7.06245ZM121.832 5.2656C121.832 4.67372 121.661 4.0802 121.203 3.62249L119.789 5.03671C119.792 5.03954 119.798 5.04569 119.807 5.06946C119.817 5.09728 119.832 5.15768 119.832 5.2656H121.832ZM121.216 3.63546C120.769 3.17207 120.184 2.9936 119.596 2.9936V4.9936C119.692 4.9936 119.741 5.00761 119.759 5.01444C119.774 5.01976 119.775 5.02244 119.776 5.02373L121.216 3.63546ZM119.596 2.9936C119.178 2.9936 118.773 3.07811 118.393 3.25542L119.239 5.06778C119.339 5.02109 119.454 4.9936 119.596 4.9936V2.9936ZM118.381 3.26105C118.022 3.43451 117.697 3.6869 117.401 3.98249L118.815 5.39671C119 5.2123 119.146 5.11269 119.251 5.06215L118.381 3.26105ZM118.823 3.98997L118.259 3.41397L116.83 4.81322L117.394 5.38922L118.823 3.98997ZM118.26 4.8117C118.716 4.3444 119.185 4.1536 119.704 4.1536V2.1536C118.591 2.1536 117.62 2.6028 116.828 3.4155L118.26 4.8117ZM127.266 4.1256V5.1256H128.109L128.252 4.29456L127.266 4.1256ZM124.458 4.1256V3.1256H123.458V4.1256H124.458ZM124.458 6.5256H123.458V8.28535L124.97 7.3847L124.458 6.5256ZM127.122 6.8616L126.356 7.50447V7.50447L127.122 6.8616ZM127.362 10.1496L126.475 9.68878L126.471 9.69556L126.468 9.70238L127.362 10.1496ZM123.918 11.2056L123.463 12.0959L123.471 12.1L123.918 11.2056ZM122.934 10.4256L122.263 9.68439L121.521 10.3562L122.193 11.0974L122.934 10.4256ZM123.57 9.8496L124.3 9.16644L123.628 8.44786L122.899 9.10839L123.57 9.8496ZM124.278 10.4136L123.808 11.296L123.819 11.3021L123.831 11.308L124.278 10.4136ZM126.186 10.1136L126.967 10.7383L126.974 10.7289L126.186 10.1136ZM124.746 7.0776L125.033 8.03542L125.055 8.02893L125.076 8.02146L124.746 7.0776ZM124.206 7.3176V8.3176H124.467L124.695 8.1901L124.206 7.3176ZM123.426 7.3176H122.426V8.3176H123.426V7.3176ZM123.426 3.2856V2.2856H122.426V3.2856H123.426ZM127.41 3.2856L128.396 3.45456L128.596 2.2856H127.41V3.2856ZM127.266 3.1256H124.458V5.1256H127.266V3.1256ZM123.458 4.1256V6.5256H125.458V4.1256H123.458ZM124.97 7.3847C125.203 7.24596 125.419 7.1896 125.634 7.1896V5.1896C125.033 5.1896 124.465 5.35723 123.946 5.6665L124.97 7.3847ZM125.634 7.1896C125.973 7.1896 126.181 7.2963 126.356 7.50447L127.888 6.21873C127.311 5.5309 126.528 5.1896 125.634 5.1896V7.1896ZM126.356 7.50447C126.535 7.7174 126.686 8.08132 126.686 8.7216H128.686C128.686 7.77788 128.461 6.9018 127.888 6.21873L126.356 7.50447ZM126.686 8.7216C126.686 9.12037 126.607 9.43438 126.475 9.68878L128.25 10.6104C128.549 10.0328 128.686 9.39482 128.686 8.7216H126.686ZM126.468 9.70238C126.341 9.95574 126.173 10.1352 125.957 10.2657L126.991 11.9775C127.543 11.644 127.967 11.1755 128.257 10.5968L126.468 9.70238ZM125.957 10.2657C125.75 10.3907 125.486 10.4696 125.13 10.4696V12.4696C125.798 12.4696 126.43 12.3165 126.991 11.9775L125.957 10.2657ZM125.13 10.4696C124.805 10.4696 124.558 10.4075 124.365 10.3112L123.471 12.1C123.982 12.3557 124.543 12.4696 125.13 12.4696V10.4696ZM124.374 10.3154C124.156 10.2042 123.922 10.0259 123.675 9.75378L122.193 11.0974C122.571 11.5133 122.992 11.855 123.463 12.0958L124.374 10.3154ZM123.605 11.1668L124.241 10.5908L122.899 9.10839L122.263 9.68439L123.605 11.1668ZM122.84 10.5328C123.129 10.8419 123.45 11.1052 123.808 11.296L124.749 9.53125C124.626 9.46595 124.475 9.35332 124.3 9.16644L122.84 10.5328ZM123.831 11.308C124.231 11.5079 124.664 11.5936 125.106 11.5936V9.5936C124.924 9.5936 124.806 9.55927 124.725 9.51917L123.831 11.308ZM125.106 11.5936C125.828 11.5936 126.495 11.3289 126.967 10.7383L125.405 9.4889C125.366 9.53833 125.312 9.5936 125.106 9.5936V11.5936ZM126.974 10.7289C127.418 10.1603 127.57 9.44133 127.57 8.7096H125.57C125.57 9.19387 125.466 9.41091 125.398 9.49833L126.974 10.7289ZM127.57 8.7096C127.57 8.04034 127.449 7.35573 127.044 6.81992C126.599 6.23121 125.947 5.9936 125.274 5.9936V7.9936C125.381 7.9936 125.427 8.01127 125.437 8.01571C125.442 8.01756 125.441 8.0165 125.448 8.02527C125.475 8.06147 125.57 8.23485 125.57 8.7096H127.57ZM125.274 5.9936C124.984 5.9936 124.695 6.036 124.416 6.13374L125.076 8.02146C125.117 8.00719 125.18 7.9936 125.274 7.9936V5.9936ZM124.459 6.11977C124.208 6.1949 123.959 6.30958 123.717 6.44509L124.695 8.1901C124.853 8.10162 124.964 8.0563 125.033 8.03542L124.459 6.11977ZM124.206 6.3176H123.426V8.3176H124.206V6.3176ZM124.426 7.3176V3.2856H122.426V7.3176H124.426ZM123.426 4.2856H127.41V2.2856H123.426V4.2856ZM126.424 3.11663L126.28 3.95663L128.252 4.29456L128.396 3.45456L126.424 3.11663ZM133.134 4.1976L133.992 3.68455V3.68455L133.134 4.1976ZM133.134 10.4376L133.99 10.955L133.992 10.9506L133.134 10.4376ZM129.45 10.4256L128.592 10.9386L129.45 10.4256ZM130.266 4.7616L129.35 4.36077L129.347 4.36768L130.266 4.7616ZM130.266 9.8616L129.347 10.2556L129.352 10.2677L130.266 9.8616ZM132.306 9.8616L131.392 9.45542L131.387 9.46768L132.306 9.8616ZM132.318 4.7496L133.237 4.35568L132.318 4.7496ZM131.298 4.1536C131.753 4.1536 132.039 4.31536 132.276 4.71064L133.992 3.68455C133.397 2.68784 132.459 2.1536 131.298 2.1536V4.1536ZM132.276 4.71064C132.555 5.17797 132.758 5.99913 132.758 7.3056H134.758C134.758 5.86007 134.545 4.60922 133.992 3.68455L132.276 4.71064ZM132.758 7.3056C132.758 8.63064 132.554 9.45852 132.276 9.92455L133.992 10.9506C134.546 10.0247 134.758 8.76455 134.758 7.3056H132.758ZM132.278 9.92018C132.044 10.3068 131.758 10.4696 131.298 10.4696V12.4696C132.454 12.4696 133.391 11.9444 133.99 10.955L132.278 9.92018ZM131.298 10.4696C130.831 10.4696 130.542 10.3042 130.308 9.91255L128.592 10.9386C129.189 11.939 130.133 12.4696 131.298 12.4696V10.4696ZM130.308 9.91255C130.029 9.44588 129.826 8.62136 129.826 7.3056H127.826C127.826 8.75784 128.038 10.0133 128.592 10.9386L130.308 9.91255ZM129.826 7.3056C129.826 5.98815 130.028 5.16562 130.303 4.70317C130.53 4.32255 130.816 4.1536 131.298 4.1536V2.1536C130.131 2.1536 129.182 2.67664 128.585 3.68003C128.036 4.60157 127.826 5.85505 127.826 7.3056H129.826ZM131.298 2.9936C130.87 2.9936 130.454 3.11622 130.095 3.38337C129.747 3.64201 129.511 3.99253 129.35 4.36078L131.182 5.16242C131.245 5.01867 131.292 4.98519 131.289 4.98783C131.287 4.98944 131.281 4.9929 131.274 4.9949C131.269 4.99664 131.275 4.9936 131.298 4.9936V2.9936ZM129.347 4.36768C129.044 5.07337 128.942 6.10023 128.942 7.3056H130.942C130.942 6.12697 131.055 5.45783 131.185 5.15552L129.347 4.36768ZM128.942 7.3056C128.942 8.51787 129.044 9.54937 129.347 10.2555L131.185 9.46768C131.056 9.16583 130.942 8.49333 130.942 7.3056H128.942ZM129.352 10.2677C129.515 10.6335 129.753 10.9802 130.101 11.2353C130.46 11.4981 130.873 11.6176 131.298 11.6176V9.6176C131.273 9.6176 131.266 9.61439 131.27 9.6157C131.275 9.61727 131.281 9.62027 131.283 9.6219C131.287 9.62495 131.241 9.59372 131.18 9.45546L129.352 10.2677ZM131.298 11.6176C131.723 11.6176 132.136 11.4957 132.492 11.2286C132.837 10.9701 133.069 10.6206 133.225 10.2555L131.387 9.46768C131.327 9.6066 131.283 9.63505 131.292 9.6286C131.297 9.62508 131.305 9.62027 131.314 9.61742C131.322 9.61485 131.319 9.6176 131.298 9.6176V11.6176ZM133.22 10.2677C133.536 9.55635 133.642 8.51902 133.642 7.3056H131.642C131.642 8.49217 131.524 9.15885 131.392 9.45546L133.22 10.2677ZM133.642 7.3056C133.642 6.09333 133.54 5.06183 133.237 4.35568L131.399 5.14352C131.528 5.44536 131.642 6.11787 131.642 7.3056H133.642ZM133.237 4.35568C133.079 3.98796 132.845 3.63741 132.496 3.37921C132.137 3.11313 131.723 2.9936 131.298 2.9936V4.9936C131.323 4.9936 131.329 4.99682 131.324 4.99507C131.317 4.99303 131.31 4.98915 131.305 4.98599C131.297 4.97978 131.34 5.00724 131.399 5.14352L133.237 4.35568Z" fill="#1C1C1C" mask="url(#path-6-inside-1_118_504)"/>
<path d="M135.373 348.244L132.946 384.472L135.373 348.244Z" fill="#1C1C1C"/>
<path d="M135.373 348.244L132.946 384.472" stroke="#1C1C1C"/>
<mask id="path-10-inside-2_118_504" fill="white">
<path d="M113.707 396.972V405H112.639V398.1L110.971 399.228L110.479 398.508L112.759 396.972H113.707ZM117.986 396.84C118.794 396.84 119.406 397.188 119.822 397.884C120.238 398.58 120.446 399.616 120.446 400.992C120.446 402.384 120.238 403.428 119.822 404.124C119.406 404.812 118.794 405.156 117.986 405.156C117.17 405.156 116.554 404.808 116.138 404.112C115.722 403.416 115.514 402.376 115.514 400.992C115.514 398.224 116.338 396.84 117.986 396.84ZM117.986 397.68C117.522 397.68 117.178 397.936 116.954 398.448C116.738 398.952 116.63 399.8 116.63 400.992C116.63 402.192 116.738 403.044 116.954 403.548C117.178 404.052 117.522 404.304 117.986 404.304C118.442 404.304 118.778 404.052 118.994 403.548C119.218 403.044 119.33 402.192 119.33 400.992C119.33 399.792 119.222 398.94 119.006 398.436C118.79 397.932 118.45 397.68 117.986 397.68ZM127.068 396.84C127.876 396.84 128.488 397.188 128.904 397.884C129.32 398.58 129.528 399.616 129.528 400.992C129.528 402.384 129.32 403.428 128.904 404.124C128.488 404.812 127.876 405.156 127.068 405.156C126.252 405.156 125.636 404.808 125.22 404.112C124.804 403.416 124.596 402.376 124.596 400.992C124.596 398.224 125.42 396.84 127.068 396.84ZM127.068 397.68C126.604 397.68 126.26 397.936 126.036 398.448C125.82 398.952 125.712 399.8 125.712 400.992C125.712 402.192 125.82 403.044 126.036 403.548C126.26 404.052 126.604 404.304 127.068 404.304C127.524 404.304 127.86 404.052 128.076 403.548C128.3 403.044 128.412 402.192 128.412 400.992C128.412 399.792 128.304 398.94 128.088 398.436C127.872 397.932 127.532 397.68 127.068 397.68ZM133.326 396.84C134.134 396.84 134.746 397.188 135.162 397.884C135.578 398.58 135.786 399.616 135.786 400.992C135.786 402.384 135.578 403.428 135.162 404.124C134.746 404.812 134.134 405.156 133.326 405.156C132.51 405.156 131.894 404.808 131.478 404.112C131.062 403.416 130.854 402.376 130.854 400.992C130.854 398.224 131.678 396.84 133.326 396.84ZM133.326 397.68C132.862 397.68 132.518 397.936 132.294 398.448C132.078 398.952 131.97 399.8 131.97 400.992C131.97 402.192 132.078 403.044 132.294 403.548C132.518 404.052 132.862 404.304 133.326 404.304C133.782 404.304 134.118 404.052 134.334 403.548C134.558 403.044 134.67 402.192 134.67 400.992C134.67 399.792 134.562 398.94 134.346 398.436C134.13 397.932 133.79 397.68 133.326 397.68ZM139.584 396.84C140.392 396.84 141.004 397.188 141.42 397.884C141.836 398.58 142.044 399.616 142.044 400.992C142.044 402.384 141.836 403.428 141.42 404.124C141.004 404.812 140.392 405.156 139.584 405.156C138.768 405.156 138.152 404.808 137.736 404.112C137.32 403.416 137.112 402.376 137.112 400.992C137.112 398.224 137.936 396.84 139.584 396.84ZM139.584 397.68C139.12 397.68 138.776 397.936 138.552 398.448C138.336 398.952 138.228 399.8 138.228 400.992C138.228 402.192 138.336 403.044 138.552 403.548C138.776 404.052 139.12 404.304 139.584 404.304C140.04 404.304 140.376 404.052 140.592 403.548C140.816 403.044 140.928 402.192 140.928 400.992C140.928 399.792 140.82 398.94 140.604 398.436C140.388 397.932 140.048 397.68 139.584 397.68Z"/>
</mask>
<path d="M113.707 396.972V405H112.639V398.1L110.971 399.228L110.479 398.508L112.759 396.972H113.707ZM117.986 396.84C118.794 396.84 119.406 397.188 119.822 397.884C120.238 398.58 120.446 399.616 120.446 400.992C120.446 402.384 120.238 403.428 119.822 404.124C119.406 404.812 118.794 405.156 117.986 405.156C117.17 405.156 116.554 404.808 116.138 404.112C115.722 403.416 115.514 402.376 115.514 400.992C115.514 398.224 116.338 396.84 117.986 396.84ZM117.986 397.68C117.522 397.68 117.178 397.936 116.954 398.448C116.738 398.952 116.63 399.8 116.63 400.992C116.63 402.192 116.738 403.044 116.954 403.548C117.178 404.052 117.522 404.304 117.986 404.304C118.442 404.304 118.778 404.052 118.994 403.548C119.218 403.044 119.33 402.192 119.33 400.992C119.33 399.792 119.222 398.94 119.006 398.436C118.79 397.932 118.45 397.68 117.986 397.68ZM127.068 396.84C127.876 396.84 128.488 397.188 128.904 397.884C129.32 398.58 129.528 399.616 129.528 400.992C129.528 402.384 129.32 403.428 128.904 404.124C128.488 404.812 127.876 405.156 127.068 405.156C126.252 405.156 125.636 404.808 125.22 404.112C124.804 403.416 124.596 402.376 124.596 400.992C124.596 398.224 125.42 396.84 127.068 396.84ZM127.068 397.68C126.604 397.68 126.26 397.936 126.036 398.448C125.82 398.952 125.712 399.8 125.712 400.992C125.712 402.192 125.82 403.044 126.036 403.548C126.26 404.052 126.604 404.304 127.068 404.304C127.524 404.304 127.86 404.052 128.076 403.548C128.3 403.044 128.412 402.192 128.412 400.992C128.412 399.792 128.304 398.94 128.088 398.436C127.872 397.932 127.532 397.68 127.068 397.68ZM133.326 396.84C134.134 396.84 134.746 397.188 135.162 397.884C135.578 398.58 135.786 399.616 135.786 400.992C135.786 402.384 135.578 403.428 135.162 404.124C134.746 404.812 134.134 405.156 133.326 405.156C132.51 405.156 131.894 404.808 131.478 404.112C131.062 403.416 130.854 402.376 130.854 400.992C130.854 398.224 131.678 396.84 133.326 396.84ZM133.326 397.68C132.862 397.68 132.518 397.936 132.294 398.448C132.078 398.952 131.97 399.8 131.97 400.992C131.97 402.192 132.078 403.044 132.294 403.548C132.518 404.052 132.862 404.304 133.326 404.304C133.782 404.304 134.118 404.052 134.334 403.548C134.558 403.044 134.67 402.192 134.67 400.992C134.67 399.792 134.562 398.94 134.346 398.436C134.13 397.932 133.79 397.68 133.326 397.68ZM139.584 396.84C140.392 396.84 141.004 397.188 141.42 397.884C141.836 398.58 142.044 399.616 142.044 400.992C142.044 402.384 141.836 403.428 141.42 404.124C141.004 404.812 140.392 405.156 139.584 405.156C138.768 405.156 138.152 404.808 137.736 404.112C137.32 403.416 137.112 402.376 137.112 400.992C137.112 398.224 137.936 396.84 139.584 396.84ZM139.584 397.68C139.12 397.68 138.776 397.936 138.552 398.448C138.336 398.952 138.228 399.8 138.228 400.992C138.228 402.192 138.336 403.044 138.552 403.548C138.776 404.052 139.12 404.304 139.584 404.304C140.04 404.304 140.376 404.052 140.592 403.548C140.816 403.044 140.928 402.192 140.928 400.992C140.928 399.792 140.82 398.94 140.604 398.436C140.388 397.932 140.048 397.68 139.584 397.68Z" fill="#1C1C1C"/>
<path d="M113.707 396.972H114.707V395.972H113.707V396.972ZM113.707 405V406H114.707V405H113.707ZM112.639 405H111.639V406H112.639V405ZM112.639 398.1H113.639V396.217L112.078 397.272L112.639 398.1ZM110.971 399.228L110.145 399.792L110.706 400.614L111.531 400.056L110.971 399.228ZM110.479 398.508L109.92 397.679L109.085 398.241L109.653 399.072L110.479 398.508ZM112.759 396.972V395.972H112.453L112.2 396.143L112.759 396.972ZM112.707 396.972V405H114.707V396.972H112.707ZM113.707 404H112.639V406H113.707V404ZM113.639 405V398.1H111.639V405H113.639ZM112.078 397.272L110.41 398.4L111.531 400.056L113.199 398.928L112.078 397.272ZM111.796 398.664L111.304 397.944L109.653 399.072L110.145 399.792L111.796 398.664ZM111.037 399.337L113.317 397.801L112.2 396.143L109.92 397.679L111.037 399.337ZM112.759 397.972H113.707V395.972H112.759V397.972ZM119.822 397.884L120.681 397.371V397.371L119.822 397.884ZM119.822 404.124L120.678 404.641L120.681 404.637L119.822 404.124ZM116.138 404.112L115.28 404.625L116.138 404.112ZM116.954 398.448L116.038 398.047L116.035 398.054L116.954 398.448ZM116.954 403.548L116.035 403.942L116.041 403.954L116.954 403.548ZM118.994 403.548L118.08 403.142L118.075 403.154L118.994 403.548ZM119.006 398.436L119.926 398.042L119.006 398.436ZM117.986 397.84C118.441 397.84 118.728 398.002 118.964 398.397L120.681 397.371C120.085 396.374 119.148 395.84 117.986 395.84V397.84ZM118.964 398.397C119.243 398.864 119.446 399.686 119.446 400.992H121.446C121.446 399.546 121.233 398.296 120.681 397.371L118.964 398.397ZM119.446 400.992C119.446 402.317 119.243 403.145 118.964 403.611L120.681 404.637C121.234 403.711 121.446 402.451 121.446 400.992H119.446ZM118.967 403.607C118.733 403.993 118.446 404.156 117.986 404.156V406.156C119.142 406.156 120.08 405.631 120.678 404.641L118.967 403.607ZM117.986 404.156C117.519 404.156 117.231 403.991 116.997 403.599L115.28 404.625C115.878 405.625 116.821 406.156 117.986 406.156V404.156ZM116.997 403.599C116.718 403.132 116.514 402.308 116.514 400.992H114.514C114.514 402.444 114.727 403.7 115.28 404.625L116.997 403.599ZM116.514 400.992C116.514 399.675 116.716 398.852 116.992 398.39C117.218 398.009 117.505 397.84 117.986 397.84V395.84C116.82 395.84 115.871 396.363 115.273 397.366C114.724 398.288 114.514 399.541 114.514 400.992H116.514ZM117.986 396.68C117.558 396.68 117.142 396.803 116.783 397.07C116.436 397.328 116.199 397.679 116.038 398.047L117.871 398.849C117.933 398.705 117.981 398.672 117.977 398.674C117.975 398.676 117.969 398.679 117.963 398.681C117.957 398.683 117.963 398.68 117.986 398.68V396.68ZM116.035 398.054C115.733 398.76 115.63 399.787 115.63 400.992H117.63C117.63 399.813 117.744 399.144 117.874 398.842L116.035 398.054ZM115.63 400.992C115.63 402.204 115.733 403.236 116.035 403.942L117.874 403.154C117.744 402.852 117.63 402.18 117.63 400.992H115.63ZM116.041 403.954C116.203 404.32 116.441 404.667 116.789 404.922C117.148 405.184 117.562 405.304 117.986 405.304V403.304C117.962 403.304 117.954 403.301 117.959 403.302C117.964 403.304 117.969 403.307 117.971 403.308C117.976 403.311 117.93 403.28 117.868 403.142L116.041 403.954ZM117.986 405.304C118.411 405.304 118.824 405.182 119.18 404.915C119.525 404.657 119.757 404.307 119.914 403.942L118.075 403.154C118.016 403.293 117.972 403.321 117.98 403.315C117.985 403.311 117.994 403.307 118.003 403.304C118.011 403.301 118.007 403.304 117.986 403.304V405.304ZM119.908 403.954C120.224 403.243 120.33 402.205 120.33 400.992H118.33C118.33 402.179 118.212 402.845 118.081 403.142L119.908 403.954ZM120.33 400.992C120.33 399.78 120.228 398.748 119.926 398.042L118.087 398.83C118.217 399.132 118.33 399.804 118.33 400.992H120.33ZM119.926 398.042C119.768 397.674 119.533 397.324 119.185 397.066C118.826 396.8 118.411 396.68 117.986 396.68V398.68C118.011 398.68 118.018 398.683 118.012 398.681C118.006 398.679 117.998 398.676 117.994 398.672C117.986 398.666 118.029 398.694 118.087 398.83L119.926 398.042ZM128.904 397.884L129.763 397.371V397.371L128.904 397.884ZM128.904 404.124L129.76 404.641L129.763 404.637L128.904 404.124ZM125.22 404.112L124.362 404.625L125.22 404.112ZM126.036 398.448L125.12 398.047L125.117 398.054L126.036 398.448ZM126.036 403.548L125.117 403.942L125.123 403.954L126.036 403.548ZM128.076 403.548L127.163 403.142L127.157 403.154L128.076 403.548ZM128.088 398.436L129.008 398.042L128.088 398.436ZM127.068 397.84C127.523 397.84 127.81 398.002 128.046 398.397L129.763 397.371C129.167 396.374 128.23 395.84 127.068 395.84V397.84ZM128.046 398.397C128.325 398.864 128.528 399.686 128.528 400.992H130.528C130.528 399.546 130.315 398.296 129.763 397.371L128.046 398.397ZM128.528 400.992C128.528 402.317 128.325 403.145 128.046 403.611L129.763 404.637C130.316 403.711 130.528 402.451 130.528 400.992H128.528ZM128.049 403.607C127.815 403.993 127.529 404.156 127.068 404.156V406.156C128.224 406.156 129.162 405.631 129.76 404.641L128.049 403.607ZM127.068 404.156C126.602 404.156 126.313 403.991 126.079 403.599L124.362 404.625C124.96 405.625 125.903 406.156 127.068 406.156V404.156ZM126.079 403.599C125.8 403.132 125.596 402.308 125.596 400.992H123.596C123.596 402.444 123.809 403.7 124.362 404.625L126.079 403.599ZM125.596 400.992C125.596 399.675 125.798 398.852 126.074 398.39C126.3 398.009 126.587 397.84 127.068 397.84V395.84C125.902 395.84 124.953 396.363 124.355 397.366C123.807 398.288 123.596 399.541 123.596 400.992H125.596ZM127.068 396.68C126.64 396.68 126.224 396.803 125.865 397.07C125.518 397.328 125.281 397.679 125.12 398.047L126.953 398.849C127.015 398.705 127.063 398.672 127.059 398.674C127.057 398.676 127.051 398.679 127.045 398.681C127.039 398.683 127.045 398.68 127.068 398.68V396.68ZM125.117 398.054C124.815 398.76 124.712 399.787 124.712 400.992H126.712C126.712 399.813 126.826 399.144 126.956 398.842L125.117 398.054ZM124.712 400.992C124.712 402.204 124.815 403.236 125.117 403.942L126.956 403.154C126.826 402.852 126.712 402.18 126.712 400.992H124.712ZM125.123 403.954C125.285 404.32 125.523 404.667 125.871 404.922C126.23 405.184 126.644 405.304 127.068 405.304V403.304C127.044 403.304 127.036 403.301 127.041 403.302C127.046 403.304 127.051 403.307 127.053 403.308C127.058 403.311 127.012 403.28 126.95 403.142L125.123 403.954ZM127.068 405.304C127.493 405.304 127.906 405.182 128.262 404.915C128.607 404.657 128.839 404.307 128.996 403.942L127.157 403.154C127.098 403.293 127.054 403.321 127.062 403.315C127.067 403.311 127.076 403.307 127.085 403.304C127.093 403.301 127.089 403.304 127.068 403.304V405.304ZM128.99 403.954C129.306 403.243 129.412 402.205 129.412 400.992H127.412C127.412 402.179 127.294 402.845 127.163 403.142L128.99 403.954ZM129.412 400.992C129.412 399.78 129.31 398.748 129.008 398.042L127.169 398.83C127.299 399.132 127.412 399.804 127.412 400.992H129.412ZM129.008 398.042C128.85 397.674 128.615 397.324 128.267 397.066C127.908 396.8 127.493 396.68 127.068 396.68V398.68C127.093 398.68 127.1 398.683 127.094 398.681C127.088 398.679 127.08 398.676 127.076 398.672C127.068 398.666 127.111 398.694 127.169 398.83L129.008 398.042ZM135.162 397.884L136.021 397.371V397.371L135.162 397.884ZM135.162 404.124L136.018 404.641L136.021 404.637L135.162 404.124ZM131.478 404.112L130.62 404.625L131.478 404.112ZM132.294 398.448L131.378 398.047L131.375 398.054L132.294 398.448ZM132.294 403.548L131.375 403.942L131.38 403.954L132.294 403.548ZM134.334 403.548L133.42 403.142L133.415 403.154L134.334 403.548ZM134.346 398.436L135.265 398.042L134.346 398.436ZM133.326 397.84C133.781 397.84 134.068 398.002 134.304 398.397L136.021 397.371C135.425 396.374 134.488 395.84 133.326 395.84V397.84ZM134.304 398.397C134.583 398.864 134.786 399.686 134.786 400.992H136.786C136.786 399.546 136.573 398.296 136.021 397.371L134.304 398.397ZM134.786 400.992C134.786 402.317 134.582 403.145 134.304 403.611L136.021 404.637C136.574 403.711 136.786 402.451 136.786 400.992H134.786ZM134.306 403.607C134.073 403.993 133.786 404.156 133.326 404.156V406.156C134.482 406.156 135.42 405.631 136.018 404.641L134.306 403.607ZM133.326 404.156C132.859 404.156 132.571 403.991 132.337 403.599L130.62 404.625C131.218 405.625 132.161 406.156 133.326 406.156V404.156ZM132.337 403.599C132.058 403.132 131.854 402.308 131.854 400.992H129.854C129.854 402.444 130.067 403.7 130.62 404.625L132.337 403.599ZM131.854 400.992C131.854 399.675 132.056 398.852 132.331 398.39C132.558 398.009 132.845 397.84 133.326 397.84V395.84C132.16 395.84 131.21 396.363 130.613 397.366C130.064 398.288 129.854 399.541 129.854 400.992H131.854ZM133.326 396.68C132.898 396.68 132.482 396.803 132.123 397.07C131.776 397.328 131.539 397.679 131.378 398.047L133.21 398.849C133.273 398.705 133.321 398.672 133.317 398.674C133.315 398.676 133.309 398.679 133.303 398.681C133.297 398.683 133.303 398.68 133.326 398.68V396.68ZM131.375 398.054C131.073 398.76 130.97 399.787 130.97 400.992H132.97C132.97 399.813 133.084 399.144 133.213 398.842L131.375 398.054ZM130.97 400.992C130.97 402.204 131.072 403.236 131.375 403.942L133.213 403.154C133.084 402.852 132.97 402.18 132.97 400.992H130.97ZM131.38 403.954C131.543 404.32 131.781 404.667 132.129 404.922C132.488 405.184 132.901 405.304 133.326 405.304V403.304C133.302 403.304 133.294 403.301 133.298 403.302C133.304 403.304 133.309 403.307 133.311 403.308C133.315 403.311 133.269 403.28 133.208 403.142L131.38 403.954ZM133.326 405.304C133.751 405.304 134.164 405.182 134.52 404.915C134.865 404.657 135.097 404.307 135.253 403.942L133.415 403.154C133.356 403.293 133.312 403.321 133.32 403.315C133.325 403.311 133.334 403.307 133.343 403.304C133.351 403.301 133.347 403.304 133.326 403.304V405.304ZM135.248 403.954C135.564 403.243 135.67 402.205 135.67 400.992H133.67C133.67 402.179 133.552 402.845 133.42 403.142L135.248 403.954ZM135.67 400.992C135.67 399.78 135.568 398.748 135.265 398.042L133.427 398.83C133.556 399.132 133.67 399.804 133.67 400.992H135.67ZM135.265 398.042C135.108 397.674 134.873 397.324 134.525 397.066C134.166 396.8 133.751 396.68 133.326 396.68V398.68C133.351 398.68 133.357 398.683 133.352 398.681C133.345 398.679 133.338 398.676 133.334 398.672C133.325 398.666 133.369 398.694 133.427 398.83L135.265 398.042ZM141.42 397.884L142.278 397.371V397.371L141.42 397.884ZM141.42 404.124L142.276 404.641L142.278 404.637L141.42 404.124ZM137.736 404.112L136.878 404.625L137.736 404.112ZM138.552 398.448L137.636 398.047L137.633 398.054L138.552 398.448ZM138.552 403.548L137.633 403.942L137.638 403.954L138.552 403.548ZM140.592 403.548L139.678 403.142L139.673 403.154L140.592 403.548ZM140.604 398.436L141.523 398.042L140.604 398.436ZM139.584 397.84C140.039 397.84 140.325 398.002 140.562 398.397L142.278 397.371C141.683 396.374 140.745 395.84 139.584 395.84V397.84ZM140.562 398.397C140.841 398.864 141.044 399.686 141.044 400.992H143.044C143.044 399.546 142.831 398.296 142.278 397.371L140.562 398.397ZM141.044 400.992C141.044 402.317 140.84 403.145 140.562 403.611L142.278 404.637C142.832 403.711 143.044 402.451 143.044 400.992H141.044ZM140.564 403.607C140.331 403.993 140.044 404.156 139.584 404.156V406.156C140.74 406.156 141.678 405.631 142.276 404.641L140.564 403.607ZM139.584 404.156C139.117 404.156 138.828 403.991 138.594 403.599L136.878 404.625C137.476 405.625 138.419 406.156 139.584 406.156V404.156ZM138.594 403.599C138.315 403.132 138.112 402.308 138.112 400.992H136.112C136.112 402.444 136.325 403.7 136.878 404.625L138.594 403.599ZM138.112 400.992C138.112 399.675 138.314 398.852 138.589 398.39C138.816 398.009 139.102 397.84 139.584 397.84V395.84C138.418 395.84 137.468 396.363 136.871 397.366C136.322 398.288 136.112 399.541 136.112 400.992H138.112ZM139.584 396.68C139.156 396.68 138.74 396.803 138.381 397.07C138.033 397.328 137.797 397.679 137.636 398.047L139.468 398.849C139.531 398.705 139.579 398.672 139.575 398.674C139.573 398.676 139.567 398.679 139.561 398.681C139.555 398.683 139.561 398.68 139.584 398.68V396.68ZM137.633 398.054C137.33 398.76 137.228 399.787 137.228 400.992H139.228C139.228 399.813 139.342 399.144 139.471 398.842L137.633 398.054ZM137.228 400.992C137.228 402.204 137.33 403.236 137.633 403.942L139.471 403.154C139.342 402.852 139.228 402.18 139.228 400.992H137.228ZM137.638 403.954C137.801 404.32 138.039 404.667 138.387 404.922C138.746 405.184 139.159 405.304 139.584 405.304V403.304C139.559 403.304 139.552 403.301 139.556 403.302C139.561 403.304 139.567 403.307 139.569 403.308C139.573 403.311 139.527 403.28 139.466 403.142L137.638 403.954ZM139.584 405.304C140.009 405.304 140.422 405.182 140.778 404.915C141.123 404.657 141.355 404.307 141.511 403.942L139.673 403.154C139.613 403.293 139.569 403.321 139.578 403.315C139.583 403.311 139.591 403.307 139.6 403.304C139.608 403.301 139.605 403.304 139.584 403.304V405.304ZM141.506 403.954C141.822 403.243 141.928 402.205 141.928 400.992H139.928C139.928 402.179 139.81 402.845 139.678 403.142L141.506 403.954ZM141.928 400.992C141.928 399.78 141.826 398.748 141.523 398.042L139.685 398.83C139.814 399.132 139.928 399.804 139.928 400.992H141.928ZM141.523 398.042C141.366 397.674 141.131 397.324 140.782 397.066C140.423 396.8 140.009 396.68 139.584 396.68V398.68C139.609 398.68 139.615 398.683 139.61 398.681C139.603 398.679 139.596 398.676 139.592 398.672C139.583 398.666 139.626 398.694 139.685 398.83L141.523 398.042Z" fill="#1C1C1C" mask="url(#path-10-inside-2_118_504)"/>
<path d="M289.01 221.545L324.993 226.098L289.01 221.545Z" fill="#1C1C1C"/>
<path d="M289.01 221.545L324.993 226.098" stroke="#1C1C1C"/>
<mask id="path-14-inside-3_118_504" fill="white">
<path d="M327.453 207.152C327.893 207.152 328.277 207.244 328.605 207.428C328.933 207.604 329.185 207.848 329.361 208.16C329.537 208.464 329.625 208.8 329.625 209.168C329.625 209.68 329.493 210.096 329.229 210.416C328.965 210.728 328.589 210.94 328.101 211.052C328.629 211.1 329.053 211.292 329.373 211.628C329.693 211.964 329.853 212.432 329.853 213.032C329.853 213.488 329.749 213.9 329.541 214.268C329.341 214.636 329.049 214.928 328.665 215.144C328.289 215.36 327.849 215.468 327.345 215.468C326.881 215.468 326.465 215.38 326.097 215.204C325.737 215.02 325.405 214.744 325.101 214.376L325.749 213.824C325.997 214.096 326.241 214.296 326.481 214.424C326.729 214.544 327.005 214.604 327.309 214.604C327.749 214.604 328.097 214.464 328.353 214.184C328.617 213.896 328.749 213.504 328.749 213.008C328.749 212.48 328.617 212.1 328.353 211.868C328.097 211.628 327.725 211.508 327.237 211.508H326.733L326.865 210.704H327.201C327.601 210.704 327.929 210.58 328.185 210.332C328.449 210.084 328.581 209.728 328.581 209.264C328.581 208.864 328.469 208.552 328.245 208.328C328.029 208.104 327.729 207.992 327.345 207.992C327.065 207.992 326.805 208.048 326.565 208.16C326.333 208.272 326.097 208.448 325.857 208.688L325.293 208.112C325.917 207.472 326.637 207.152 327.453 207.152ZM335.667 207.152C336.123 207.152 336.515 207.248 336.843 207.44C337.179 207.624 337.435 207.88 337.611 208.208C337.787 208.528 337.875 208.892 337.875 209.3C337.875 209.788 337.779 210.252 337.587 210.692C337.403 211.124 337.103 211.608 336.687 212.144C336.271 212.68 335.631 213.44 334.767 214.424H338.055L337.923 215.312H333.579V214.472C334.507 213.4 335.183 212.588 335.607 212.036C336.039 211.484 336.339 211.012 336.507 210.62C336.675 210.22 336.759 209.8 336.759 209.36C336.759 208.936 336.651 208.608 336.435 208.376C336.227 208.144 335.943 208.028 335.583 208.028C335.279 208.028 335.015 208.096 334.791 208.232C334.567 208.368 334.335 208.584 334.095 208.88L333.423 208.364C334.007 207.556 334.755 207.152 335.667 207.152ZM343.136 208.124H340.328V210.524C340.704 210.3 341.096 210.188 341.504 210.188C342.12 210.188 342.616 210.412 342.992 210.86C343.368 211.308 343.556 211.928 343.556 212.72C343.556 213.256 343.448 213.732 343.232 214.148C343.024 214.564 342.728 214.888 342.344 215.12C341.96 215.352 341.512 215.468 341 215.468C340.544 215.468 340.14 215.38 339.788 215.204C339.444 215.028 339.116 214.768 338.804 214.424L339.44 213.848C339.672 214.096 339.908 214.284 340.148 214.412C340.388 214.532 340.664 214.592 340.976 214.592C341.44 214.592 341.8 214.432 342.056 214.112C342.312 213.784 342.44 213.316 342.44 212.708C342.44 211.564 342.008 210.992 341.144 210.992C340.952 210.992 340.776 211.02 340.616 211.076C340.456 211.124 340.276 211.204 340.076 211.316H339.296V207.284H343.28L343.136 208.124ZM347.168 207.152C347.976 207.152 348.588 207.5 349.004 208.196C349.42 208.892 349.628 209.928 349.628 211.304C349.628 212.696 349.42 213.74 349.004 214.436C348.588 215.124 347.976 215.468 347.168 215.468C346.352 215.468 345.736 215.12 345.32 214.424C344.904 213.728 344.696 212.688 344.696 211.304C344.696 208.536 345.52 207.152 347.168 207.152ZM347.168 207.992C346.704 207.992 346.36 208.248 346.136 208.76C345.92 209.264 345.812 210.112 345.812 211.304C345.812 212.504 345.92 213.356 346.136 213.86C346.36 214.364 346.704 214.616 347.168 214.616C347.624 214.616 347.96 214.364 348.176 213.86C348.4 213.356 348.512 212.504 348.512 211.304C348.512 210.104 348.404 209.252 348.188 208.748C347.972 208.244 347.632 207.992 347.168 207.992Z"/>
</mask>
<path d="M327.453 207.152C327.893 207.152 328.277 207.244 328.605 207.428C328.933 207.604 329.185 207.848 329.361 208.16C329.537 208.464 329.625 208.8 329.625 209.168C329.625 209.68 329.493 210.096 329.229 210.416C328.965 210.728 328.589 210.94 328.101 211.052C328.629 211.1 329.053 211.292 329.373 211.628C329.693 211.964 329.853 212.432 329.853 213.032C329.853 213.488 329.749 213.9 329.541 214.268C329.341 214.636 329.049 214.928 328.665 215.144C328.289 215.36 327.849 215.468 327.345 215.468C326.881 215.468 326.465 215.38 326.097 215.204C325.737 215.02 325.405 214.744 325.101 214.376L325.749 213.824C325.997 214.096 326.241 214.296 326.481 214.424C326.729 214.544 327.005 214.604 327.309 214.604C327.749 214.604 328.097 214.464 328.353 214.184C328.617 213.896 328.749 213.504 328.749 213.008C328.749 212.48 328.617 212.1 328.353 211.868C328.097 211.628 327.725 211.508 327.237 211.508H326.733L326.865 210.704H327.201C327.601 210.704 327.929 210.58 328.185 210.332C328.449 210.084 328.581 209.728 328.581 209.264C328.581 208.864 328.469 208.552 328.245 208.328C328.029 208.104 327.729 207.992 327.345 207.992C327.065 207.992 326.805 208.048 326.565 208.16C326.333 208.272 326.097 208.448 325.857 208.688L325.293 208.112C325.917 207.472 326.637 207.152 327.453 207.152ZM335.667 207.152C336.123 207.152 336.515 207.248 336.843 207.44C337.179 207.624 337.435 207.88 337.611 208.208C337.787 208.528 337.875 208.892 337.875 209.3C337.875 209.788 337.779 210.252 337.587 210.692C337.403 211.124 337.103 211.608 336.687 212.144C336.271 212.68 335.631 213.44 334.767 214.424H338.055L337.923 215.312H333.579V214.472C334.507 213.4 335.183 212.588 335.607 212.036C336.039 211.484 336.339 211.012 336.507 210.62C336.675 210.22 336.759 209.8 336.759 209.36C336.759 208.936 336.651 208.608 336.435 208.376C336.227 208.144 335.943 208.028 335.583 208.028C335.279 208.028 335.015 208.096 334.791 208.232C334.567 208.368 334.335 208.584 334.095 208.88L333.423 208.364C334.007 207.556 334.755 207.152 335.667 207.152ZM343.136 208.124H340.328V210.524C340.704 210.3 341.096 210.188 341.504 210.188C342.12 210.188 342.616 210.412 342.992 210.86C343.368 211.308 343.556 211.928 343.556 212.72C343.556 213.256 343.448 213.732 343.232 214.148C343.024 214.564 342.728 214.888 342.344 215.12C341.96 215.352 341.512 215.468 341 215.468C340.544 215.468 340.14 215.38 339.788 215.204C339.444 215.028 339.116 214.768 338.804 214.424L339.44 213.848C339.672 214.096 339.908 214.284 340.148 214.412C340.388 214.532 340.664 214.592 340.976 214.592C341.44 214.592 341.8 214.432 342.056 214.112C342.312 213.784 342.44 213.316 342.44 212.708C342.44 211.564 342.008 210.992 341.144 210.992C340.952 210.992 340.776 211.02 340.616 211.076C340.456 211.124 340.276 211.204 340.076 211.316H339.296V207.284H343.28L343.136 208.124ZM347.168 207.152C347.976 207.152 348.588 207.5 349.004 208.196C349.42 208.892 349.628 209.928 349.628 211.304C349.628 212.696 349.42 213.74 349.004 214.436C348.588 215.124 347.976 215.468 347.168 215.468C346.352 215.468 345.736 215.12 345.32 214.424C344.904 213.728 344.696 212.688 344.696 211.304C344.696 208.536 345.52 207.152 347.168 207.152ZM347.168 207.992C346.704 207.992 346.36 208.248 346.136 208.76C345.92 209.264 345.812 210.112 345.812 211.304C345.812 212.504 345.92 213.356 346.136 213.86C346.36 214.364 346.704 214.616 347.168 214.616C347.624 214.616 347.96 214.364 348.176 213.86C348.4 213.356 348.512 212.504 348.512 211.304C348.512 210.104 348.404 209.252 348.188 208.748C347.972 208.244 347.632 207.992 347.168 207.992Z" fill="#1C1C1C"/>
<path d="M328.605 207.428L328.116 208.3L328.124 208.305L328.132 208.309L328.605 207.428ZM329.361 208.16L328.49 208.651L328.496 208.661L329.361 208.16ZM329.229 210.416L329.993 211.062L330.001 211.053L329.229 210.416ZM328.101 211.052L327.877 210.077L328.011 212.048L328.101 211.052ZM329.373 211.628L328.649 212.318H328.649L329.373 211.628ZM329.541 214.268L328.671 213.776L328.667 213.783L328.663 213.791L329.541 214.268ZM328.665 215.144L328.175 214.273L328.167 214.277L328.665 215.144ZM326.097 215.204L325.642 216.095L325.654 216.101L325.666 216.106L326.097 215.204ZM325.101 214.376L324.453 213.615L323.703 214.254L324.33 215.013L325.101 214.376ZM325.749 213.824L326.488 213.15L325.837 212.436L325.101 213.063L325.749 213.824ZM326.481 214.424L326.011 215.306L326.028 215.316L326.046 215.324L326.481 214.424ZM328.353 214.184L327.616 213.508L327.615 213.509L328.353 214.184ZM328.353 211.868L327.669 212.598L327.681 212.609L327.693 212.619L328.353 211.868ZM326.733 211.508L325.746 211.346L325.556 212.508H326.733V211.508ZM326.865 210.704V209.704H326.016L325.878 210.542L326.865 210.704ZM328.185 210.332L327.5 209.603L327.495 209.609L327.489 209.614L328.185 210.332ZM328.245 208.328L327.525 209.022L327.532 209.029L327.538 209.035L328.245 208.328ZM326.565 208.16L326.142 207.254L326.13 207.26L326.565 208.16ZM325.857 208.688L325.143 209.388L325.85 210.11L326.564 209.395L325.857 208.688ZM325.293 208.112L324.577 207.414L323.895 208.114L324.579 208.812L325.293 208.112ZM327.453 208.152C327.751 208.152 327.961 208.213 328.116 208.3L329.094 206.556C328.593 206.275 328.035 206.152 327.453 206.152V208.152ZM328.132 208.309C328.3 208.399 328.411 208.511 328.49 208.651L330.232 207.669C329.959 207.185 329.566 206.809 329.078 206.547L328.132 208.309ZM328.496 208.661C328.579 208.806 328.625 208.967 328.625 209.168H330.625C330.625 208.633 330.495 208.123 330.227 207.659L328.496 208.661ZM328.625 209.168C328.625 209.504 328.542 209.678 328.458 209.78L330.001 211.053C330.444 210.514 330.625 209.856 330.625 209.168H328.625ZM328.466 209.77C328.37 209.883 328.203 210.003 327.877 210.077L328.325 212.027C328.975 211.878 329.56 211.573 329.993 211.062L328.466 209.77ZM328.011 212.048C328.334 212.077 328.52 212.182 328.649 212.318L330.097 210.938C329.586 210.402 328.924 210.123 328.192 210.056L328.011 212.048ZM328.649 212.318C328.745 212.418 328.853 212.611 328.853 213.032H330.853C330.853 212.253 330.642 211.51 330.097 210.938L328.649 212.318ZM328.853 213.032C328.853 213.33 328.787 213.57 328.671 213.776L330.412 214.76C330.711 214.23 330.853 213.647 330.853 213.032H328.853ZM328.663 213.791C328.557 213.985 328.404 214.144 328.175 214.273L329.155 216.016C329.694 215.713 330.125 215.288 330.42 214.746L328.663 213.791ZM328.167 214.277C327.966 214.393 327.703 214.468 327.345 214.468V216.468C327.995 216.468 328.613 216.328 329.163 216.011L328.167 214.277ZM327.345 214.468C327.01 214.468 326.744 214.405 326.529 214.302L325.666 216.106C326.186 216.355 326.752 216.468 327.345 216.468V214.468ZM326.552 214.314C326.334 214.202 326.105 214.021 325.872 213.739L324.33 215.013C324.706 215.467 325.141 215.838 325.642 216.095L326.552 214.314ZM325.75 215.137L326.398 214.585L325.101 213.063L324.453 213.615L325.75 215.137ZM325.01 214.498C325.31 214.826 325.641 215.11 326.011 215.306L326.952 213.542C326.841 213.483 326.685 213.366 326.488 213.15L325.01 214.498ZM326.046 215.324C326.443 215.517 326.87 215.604 327.309 215.604V213.604C327.14 213.604 327.015 213.572 326.917 213.524L326.046 215.324ZM327.309 215.604C327.981 215.604 328.615 215.38 329.091 214.859L327.615 213.509C327.579 213.548 327.518 213.604 327.309 213.604V215.604ZM329.09 214.86C329.565 214.342 329.749 213.684 329.749 213.008H327.749C327.749 213.324 327.669 213.451 327.616 213.508L329.09 214.86ZM329.749 213.008C329.749 212.338 329.583 211.617 329.013 211.117L327.693 212.619C327.652 212.583 327.749 212.622 327.749 213.008H329.749ZM329.037 211.139C328.534 210.667 327.879 210.508 327.237 210.508V212.508C327.571 212.508 327.661 212.59 327.669 212.598L329.037 211.139ZM327.237 210.508H326.733V212.508H327.237V210.508ZM327.72 211.67L327.852 210.866L325.878 210.542L325.746 211.346L327.72 211.67ZM326.865 211.704H327.201V209.704H326.865V211.704ZM327.201 211.704C327.826 211.704 328.415 211.502 328.881 211.05L327.489 209.614C327.443 209.659 327.376 209.704 327.201 209.704V211.704ZM328.87 211.061C329.388 210.574 329.581 209.922 329.581 209.264H327.581C327.581 209.534 327.51 209.594 327.5 209.603L328.87 211.061ZM329.581 209.264C329.581 208.672 329.41 208.079 328.952 207.621L327.538 209.035C327.541 209.038 327.547 209.044 327.556 209.068C327.566 209.096 327.581 209.156 327.581 209.264H329.581ZM328.965 207.634C328.518 207.171 327.933 206.992 327.345 206.992V208.992C327.441 208.992 327.49 209.006 327.508 209.013C327.523 209.018 327.524 209.021 327.525 209.022L328.965 207.634ZM327.345 206.992C326.928 206.992 326.522 207.077 326.142 207.254L326.988 209.066C327.088 209.02 327.203 208.992 327.345 208.992V206.992ZM326.13 207.26C325.771 207.433 325.446 207.685 325.15 207.981L326.564 209.395C326.749 209.211 326.895 209.111 327 209.061L326.13 207.26ZM326.572 207.989L326.008 207.413L324.579 208.812L325.143 209.388L326.572 207.989ZM326.009 208.81C326.465 208.343 326.934 208.152 327.453 208.152V206.152C326.34 206.152 325.37 206.601 324.577 207.414L326.009 208.81ZM336.843 207.44L336.338 208.303L336.351 208.31L336.363 208.317L336.843 207.44ZM337.611 208.208L336.73 208.681L336.735 208.69L337.611 208.208ZM337.587 210.692L336.671 210.292L336.667 210.3L337.587 210.692ZM336.687 212.144L337.477 212.757L336.687 212.144ZM334.767 214.424L334.016 213.764L332.559 215.424H334.767V214.424ZM338.055 214.424L339.045 214.571L339.215 213.424H338.055V214.424ZM337.923 215.312V216.312H338.786L338.913 215.459L337.923 215.312ZM333.579 215.312H332.579V216.312H333.579V215.312ZM333.579 214.472L332.823 213.818L332.579 214.099V214.472H333.579ZM335.607 212.036L334.82 211.42L334.814 211.427L335.607 212.036ZM336.507 210.62L337.427 211.014L337.429 211.007L336.507 210.62ZM336.435 208.376L335.691 209.044L335.697 209.051L335.704 209.058L336.435 208.376ZM334.791 208.232L335.31 209.087L334.791 208.232ZM334.095 208.88L333.486 209.673L334.259 210.266L334.872 209.51L334.095 208.88ZM333.423 208.364L332.613 207.778L332.044 208.566L332.814 209.157L333.423 208.364ZM335.667 208.152C335.981 208.152 336.192 208.217 336.338 208.303L337.349 206.577C336.839 206.279 336.265 206.152 335.667 206.152V208.152ZM336.363 208.317C336.534 208.411 336.649 208.529 336.73 208.681L338.493 207.735C338.222 207.231 337.824 206.837 337.324 206.563L336.363 208.317ZM336.735 208.69C336.821 208.846 336.875 209.041 336.875 209.3H338.875C338.875 208.744 338.754 208.211 338.488 207.726L336.735 208.69ZM336.875 209.3C336.875 209.653 336.807 209.98 336.671 210.292L338.504 211.092C338.752 210.524 338.875 209.923 338.875 209.3H336.875ZM336.667 210.3C336.528 210.627 336.282 211.036 335.897 211.531L337.477 212.757C337.925 212.181 338.279 211.621 338.507 211.084L336.667 210.3ZM335.897 211.531C335.5 212.043 334.876 212.784 334.016 213.764L335.519 215.084C336.386 214.096 337.042 213.318 337.477 212.757L335.897 211.531ZM334.767 215.424H338.055V213.424H334.767V215.424ZM337.066 214.277L336.934 215.165L338.913 215.459L339.045 214.571L337.066 214.277ZM337.923 214.312H333.579V216.312H337.923V214.312ZM334.579 215.312V214.472H332.579V215.312H334.579ZM334.336 215.127C335.266 214.052 335.958 213.222 336.4 212.645L334.814 211.427C334.409 211.955 333.749 212.749 332.823 213.818L334.336 215.127ZM336.395 212.652C336.851 212.07 337.21 211.52 337.427 211.014L335.588 210.226C335.469 210.504 335.228 210.898 334.82 211.42L336.395 212.652ZM337.429 211.007C337.65 210.483 337.759 209.931 337.759 209.36H335.759C335.759 209.669 335.701 209.957 335.585 210.233L337.429 211.007ZM337.759 209.36C337.759 208.77 337.607 208.167 337.167 207.695L335.704 209.058C335.705 209.059 335.716 209.07 335.729 209.109C335.743 209.152 335.759 209.231 335.759 209.36H337.759ZM337.18 207.709C336.752 207.231 336.179 207.028 335.583 207.028V209.028C335.656 209.028 335.685 209.04 335.688 209.041C335.69 209.042 335.689 209.041 335.688 209.04C335.686 209.039 335.687 209.039 335.691 209.044L337.18 207.709ZM335.583 207.028C335.126 207.028 334.677 207.132 334.272 207.377L335.31 209.087C335.354 209.06 335.433 209.028 335.583 209.028V207.028ZM334.272 207.377C333.917 207.593 333.601 207.902 333.319 208.25L334.872 209.51C335.07 209.266 335.218 209.143 335.31 209.087L334.272 207.377ZM334.704 208.087L334.032 207.571L332.814 209.157L333.486 209.673L334.704 208.087ZM334.234 208.95C334.65 208.374 335.11 208.152 335.667 208.152V206.152C334.401 206.152 333.365 206.738 332.613 207.778L334.234 208.95ZM343.136 208.124V209.124H343.979L344.122 208.293L343.136 208.124ZM340.328 208.124V207.124H339.328V208.124H340.328ZM340.328 210.524H339.328V212.284L340.84 211.383L340.328 210.524ZM342.992 210.86L342.226 211.503V211.503L342.992 210.86ZM343.232 214.148L342.345 213.687L342.341 213.694L342.338 213.701L343.232 214.148ZM339.788 215.204L339.333 216.094L339.341 216.099L339.788 215.204ZM338.804 214.424L338.133 213.683L337.391 214.355L338.064 215.096L338.804 214.424ZM339.44 213.848L340.171 213.165L339.498 212.446L338.769 213.107L339.44 213.848ZM340.148 214.412L339.678 215.294L339.689 215.301L339.701 215.307L340.148 214.412ZM342.056 214.112L342.837 214.737L342.845 214.727L342.056 214.112ZM340.616 211.076L340.904 212.034L340.925 212.027L340.947 212.02L340.616 211.076ZM340.076 211.316V212.316H340.337L340.565 212.189L340.076 211.316ZM339.296 211.316H338.296V212.316H339.296V211.316ZM339.296 207.284V206.284H338.296V207.284H339.296ZM343.28 207.284L344.266 207.453L344.466 206.284H343.28V207.284ZM343.136 207.124H340.328V209.124H343.136V207.124ZM339.328 208.124V210.524H341.328V208.124H339.328ZM340.84 211.383C341.073 211.244 341.29 211.188 341.504 211.188V209.188C340.903 209.188 340.336 209.356 339.817 209.665L340.84 211.383ZM341.504 211.188C341.843 211.188 342.052 211.295 342.226 211.503L343.758 210.217C343.181 209.529 342.398 209.188 341.504 209.188V211.188ZM342.226 211.503C342.405 211.716 342.556 212.08 342.556 212.72H344.556C344.556 211.776 344.332 210.9 343.758 210.217L342.226 211.503ZM342.556 212.72C342.556 213.119 342.477 213.433 342.345 213.687L344.12 214.609C344.42 214.031 344.556 213.393 344.556 212.72H342.556ZM342.338 213.701C342.211 213.954 342.043 214.134 341.827 214.264L342.861 215.976C343.413 215.643 343.837 215.174 344.127 214.595L342.338 213.701ZM341.827 214.264C341.62 214.389 341.356 214.468 341 214.468V216.468C341.668 216.468 342.3 216.315 342.861 215.976L341.827 214.264ZM341 214.468C340.675 214.468 340.428 214.406 340.236 214.31L339.341 216.099C339.852 216.354 340.414 216.468 341 216.468V214.468ZM340.244 214.314C340.027 214.203 339.792 214.024 339.545 213.752L338.064 215.096C338.441 215.512 338.862 215.854 339.333 216.094L340.244 214.314ZM339.476 215.165L340.112 214.589L338.769 213.107L338.133 213.683L339.476 215.165ZM338.71 214.531C338.999 214.84 339.32 215.104 339.678 215.294L340.619 213.53C340.496 213.464 340.345 213.352 340.171 213.165L338.71 214.531ZM339.701 215.307C340.101 215.506 340.534 215.592 340.976 215.592V213.592C340.794 213.592 340.676 213.558 340.596 213.518L339.701 215.307ZM340.976 215.592C341.699 215.592 342.365 215.327 342.837 214.737L341.275 213.487C341.236 213.537 341.182 213.592 340.976 213.592V215.592ZM342.845 214.727C343.288 214.159 343.44 213.44 343.44 212.708H341.44C341.44 213.192 341.336 213.409 341.268 213.497L342.845 214.727ZM343.44 212.708C343.44 212.039 343.319 211.354 342.914 210.818C342.47 210.23 341.818 209.992 341.144 209.992V211.992C341.251 211.992 341.297 212.01 341.308 212.014C341.312 212.016 341.312 212.015 341.318 212.024C341.346 212.06 341.44 212.233 341.44 212.708H343.44ZM341.144 209.992C340.855 209.992 340.565 210.035 340.286 210.132L340.947 212.02C340.987 212.006 341.05 211.992 341.144 211.992V209.992ZM340.329 210.118C340.079 210.193 339.83 210.308 339.588 210.444L340.565 212.189C340.723 212.1 340.834 212.055 340.904 212.034L340.329 210.118ZM340.076 210.316H339.296V212.316H340.076V210.316ZM340.296 211.316V207.284H338.296V211.316H340.296ZM339.296 208.284H343.28V206.284H339.296V208.284ZM342.295 207.115L342.151 207.955L344.122 208.293L344.266 207.453L342.295 207.115ZM349.004 208.196L349.862 207.683V207.683L349.004 208.196ZM349.004 214.436L349.86 214.954L349.862 214.949L349.004 214.436ZM345.32 214.424L344.462 214.937L345.32 214.424ZM346.136 208.76L345.22 208.359L345.217 208.366L346.136 208.76ZM346.136 213.86L345.217 214.254L345.222 214.266L346.136 213.86ZM348.176 213.86L347.262 213.454L347.257 213.466L348.176 213.86ZM348.188 208.748L349.107 208.354L348.188 208.748ZM347.168 208.152C347.623 208.152 347.91 208.314 348.146 208.709L349.862 207.683C349.267 206.686 348.33 206.152 347.168 206.152V208.152ZM348.146 208.709C348.425 209.177 348.628 209.998 348.628 211.304H350.628C350.628 209.859 350.415 208.608 349.862 207.683L348.146 208.709ZM348.628 211.304C348.628 212.629 348.424 213.457 348.146 213.923L349.862 214.949C350.416 214.023 350.628 212.763 350.628 211.304H348.628ZM348.148 213.919C347.915 214.305 347.628 214.468 347.168 214.468V216.468C348.324 216.468 349.262 215.943 349.86 214.954L348.148 213.919ZM347.168 214.468C346.701 214.468 346.413 214.303 346.178 213.911L344.462 214.937C345.06 215.938 346.003 216.468 347.168 216.468V214.468ZM346.178 213.911C345.9 213.444 345.696 212.62 345.696 211.304H343.696C343.696 212.756 343.909 214.012 344.462 214.937L346.178 213.911ZM345.696 211.304C345.696 209.987 345.898 209.164 346.173 208.702C346.4 208.321 346.687 208.152 347.168 208.152V206.152C346.002 206.152 345.052 206.675 344.455 207.679C343.906 208.6 343.696 209.854 343.696 211.304H345.696ZM347.168 206.992C346.74 206.992 346.324 207.115 345.965 207.382C345.618 207.641 345.381 207.991 345.22 208.359L347.052 209.161C347.115 209.017 347.163 208.984 347.159 208.986C347.157 208.988 347.151 208.991 347.145 208.993C347.139 208.995 347.145 208.992 347.168 208.992V206.992ZM345.217 208.366C344.915 209.072 344.812 210.099 344.812 211.304H346.812C346.812 210.126 346.926 209.456 347.055 209.154L345.217 208.366ZM344.812 211.304C344.812 212.516 344.914 213.548 345.217 214.254L347.055 213.466C346.926 213.164 346.812 212.492 346.812 211.304H344.812ZM345.222 214.266C345.385 214.632 345.623 214.979 345.971 215.234C346.33 215.497 346.743 215.616 347.168 215.616V213.616C347.143 213.616 347.136 213.613 347.14 213.614C347.145 213.616 347.151 213.619 347.153 213.62C347.157 213.623 347.111 213.592 347.05 213.454L345.222 214.266ZM347.168 215.616C347.593 215.616 348.006 215.494 348.362 215.227C348.707 214.969 348.939 214.619 349.095 214.254L347.257 213.466C347.197 213.605 347.154 213.634 347.162 213.627C347.167 213.624 347.175 213.619 347.184 213.616C347.193 213.613 347.189 213.616 347.168 213.616V215.616ZM349.09 214.266C349.406 213.555 349.512 212.518 349.512 211.304H347.512C347.512 212.491 347.394 213.157 347.262 213.454L349.09 214.266ZM349.512 211.304C349.512 210.092 349.41 209.06 349.107 208.354L347.269 209.142C347.398 209.444 347.512 210.116 347.512 211.304H349.512ZM349.107 208.354C348.95 207.986 348.715 207.636 348.367 207.378C348.008 207.112 347.593 206.992 347.168 206.992V208.992C347.193 208.992 347.199 208.995 347.194 208.994C347.187 208.992 347.18 208.988 347.176 208.985C347.167 208.978 347.211 209.006 347.269 209.142L349.107 208.354Z" fill="#1C1C1C" mask="url(#path-14-inside-3_118_504)"/>
</g>
<defs>
<clipPath id="clip0_118_504">
<rect width="350" height="408" fill="white"/>
</clipPath>
</defs>
</svg>
