<svg width="742" height="323" viewBox="0 0 742 323" fill="none" xmlns="http://www.w3.org/2000/svg">
<path d="M30.6768 273.9H736.102" stroke="black"/>
<path d="M42.0547 283.86V273.9" stroke="black"/>
<path d="M42.0545 310.122C41.4125 310.122 40.8656 309.948 40.4139 309.598C39.9622 309.246 39.617 308.736 39.3784 308.069C39.1397 307.398 39.0204 306.588 39.0204 305.64C39.0204 304.696 39.1397 303.891 39.3784 303.223C39.6198 302.553 39.9664 302.042 40.4181 301.689C40.8727 301.334 41.4181 301.157 42.0545 301.157C42.6909 301.157 43.2349 301.334 43.6866 301.689C44.1411 302.042 44.4877 302.553 44.7264 303.223C44.9679 303.891 45.0886 304.696 45.0886 305.64C45.0886 306.588 44.9693 307.398 44.7306 308.069C44.492 308.736 44.1468 309.246 43.6951 309.598C43.2434 309.948 42.6965 310.122 42.0545 310.122ZM42.0545 309.185C42.6909 309.185 43.1852 308.878 43.5375 308.265C43.8897 307.651 44.0659 306.776 44.0659 305.64C44.0659 304.884 43.9849 304.24 43.823 303.709C43.6639 303.178 43.4338 302.773 43.1326 302.495C42.8343 302.216 42.475 302.077 42.0545 302.077C41.4238 302.077 40.9309 302.388 40.5758 303.01C40.2207 303.63 40.0431 304.506 40.0431 305.64C40.0431 306.395 40.1227 307.037 40.2818 307.566C40.4409 308.094 40.6696 308.496 40.9679 308.772C41.269 309.047 41.6312 309.185 42.0545 309.185Z" fill="black"/>
<path d="M64.8101 283.86V273.9" stroke="black"/>
<path d="M65.9924 301.276V310.003H64.9356V302.384H64.8845L62.7538 303.799V302.725L64.9356 301.276H65.9924Z" fill="black"/>
<path d="M87.5659 283.86V273.9" stroke="black"/>
<path d="M84.8363 310.003V309.236L87.717 306.083C88.0551 305.713 88.3335 305.392 88.5522 305.12C88.771 304.844 88.9329 304.586 89.038 304.344C89.146 304.1 89.2 303.844 89.2 303.577C89.2 303.27 89.1261 303.005 88.9784 302.78C88.8335 302.556 88.6346 302.382 88.3818 302.26C88.1289 302.138 87.8449 302.077 87.5295 302.077C87.1943 302.077 86.9017 302.147 86.6517 302.286C86.4045 302.422 86.2127 302.614 86.0764 302.861C85.9429 303.108 85.8761 303.398 85.8761 303.73H84.8704C84.8704 303.219 84.9883 302.77 85.2241 302.384C85.4599 301.997 85.7809 301.696 86.1872 301.48C86.5963 301.265 87.0551 301.157 87.5636 301.157C88.075 301.157 88.5281 301.265 88.923 301.48C89.3179 301.696 89.6275 301.988 89.852 302.354C90.0764 302.721 90.1886 303.128 90.1886 303.577C90.1886 303.898 90.1304 304.212 90.0139 304.519C89.9002 304.823 89.7014 305.162 89.4173 305.537C89.136 305.909 88.7454 306.364 88.2454 306.901L86.2852 308.997V309.066H90.342V310.003H84.8363Z" fill="black"/>
<path d="M110.322 283.86V273.9" stroke="black"/>
<path d="M110.354 310.122C109.791 310.122 109.29 310.026 108.849 309.833C108.412 309.64 108.064 309.371 107.805 309.027C107.55 308.681 107.41 308.279 107.388 307.821H108.462C108.484 308.103 108.581 308.346 108.751 308.55C108.922 308.752 109.145 308.908 109.42 309.019C109.696 309.13 110.001 309.185 110.337 309.185C110.712 309.185 111.044 309.12 111.334 308.989C111.623 308.858 111.851 308.676 112.015 308.444C112.18 308.211 112.263 307.941 112.263 307.634C112.263 307.313 112.183 307.03 112.024 306.786C111.865 306.539 111.632 306.346 111.325 306.206C111.018 306.067 110.643 305.997 110.2 305.997H109.501V305.06H110.2C110.547 305.06 110.851 304.997 111.112 304.872C111.376 304.747 111.582 304.571 111.73 304.344C111.881 304.117 111.956 303.85 111.956 303.543C111.956 303.247 111.89 302.99 111.76 302.772C111.629 302.553 111.444 302.382 111.206 302.26C110.97 302.138 110.692 302.077 110.371 302.077C110.069 302.077 109.785 302.132 109.518 302.243C109.254 302.351 109.038 302.509 108.871 302.716C108.703 302.921 108.612 303.168 108.598 303.458H107.575C107.592 303 107.73 302.6 107.988 302.256C108.247 301.909 108.585 301.64 109.003 301.446C109.423 301.253 109.885 301.157 110.388 301.157C110.927 301.157 111.39 301.266 111.777 301.485C112.163 301.701 112.46 301.986 112.667 302.341C112.875 302.696 112.979 303.08 112.979 303.492C112.979 303.983 112.849 304.402 112.591 304.749C112.335 305.096 111.987 305.336 111.547 305.469V305.537C112.098 305.628 112.528 305.863 112.838 306.24C113.148 306.615 113.302 307.08 113.302 307.634C113.302 308.108 113.173 308.534 112.915 308.912C112.659 309.287 112.31 309.583 111.866 309.799C111.423 310.015 110.919 310.122 110.354 310.122Z" fill="black"/>
<path d="M133.077 283.86V273.9" stroke="black"/>
<path d="M129.926 308.213V307.344L133.761 301.276H134.392V302.622H133.966L131.068 307.208V307.276H136.233V308.213H129.926ZM134.034 310.003V307.949V307.544V301.276H135.04V310.003H134.034Z" fill="black"/>
<path d="M155.833 283.86V273.9" stroke="black"/>
<path d="M155.813 310.122C155.313 310.122 154.863 310.023 154.462 309.824C154.062 309.625 153.741 309.353 153.499 309.006C153.258 308.659 153.126 308.265 153.103 307.821H154.126C154.165 308.216 154.344 308.543 154.663 308.801C154.984 309.057 155.367 309.185 155.813 309.185C156.171 309.185 156.489 309.101 156.768 308.934C157.049 308.766 157.269 308.536 157.428 308.243C157.59 307.948 157.671 307.614 157.671 307.242C157.671 306.861 157.587 306.522 157.42 306.223C157.255 305.922 157.028 305.685 156.738 305.512C156.448 305.338 156.117 305.25 155.745 305.247C155.478 305.245 155.204 305.286 154.922 305.371C154.641 305.453 154.41 305.56 154.228 305.691L153.239 305.571L153.768 301.276H158.302V302.213H154.654L154.347 304.787H154.398C154.577 304.645 154.802 304.527 155.072 304.434C155.342 304.34 155.623 304.293 155.915 304.293C156.449 304.293 156.925 304.421 157.343 304.676C157.763 304.929 158.093 305.276 158.332 305.716C158.573 306.157 158.694 306.659 158.694 307.225C158.694 307.782 158.569 308.279 158.319 308.716C158.072 309.151 157.731 309.495 157.296 309.747C156.861 309.997 156.367 310.122 155.813 310.122Z" fill="black"/>
<path d="M178.588 283.86V273.9" stroke="black"/>
<path d="M178.645 310.122C178.287 310.117 177.929 310.049 177.571 309.918C177.213 309.787 176.887 309.567 176.591 309.257C176.296 308.945 176.059 308.523 175.88 307.992C175.701 307.458 175.611 306.787 175.611 305.98C175.611 305.208 175.684 304.523 175.828 303.926C175.973 303.327 176.184 302.823 176.459 302.414C176.735 302.002 177.067 301.689 177.456 301.476C177.848 301.263 178.29 301.157 178.782 301.157C179.27 301.157 179.705 301.255 180.086 301.451C180.469 301.644 180.782 301.914 181.023 302.26C181.265 302.607 181.421 303.006 181.492 303.458H180.452C180.355 303.066 180.168 302.74 179.89 302.482C179.611 302.223 179.242 302.094 178.782 302.094C178.105 302.094 177.573 302.388 177.184 302.976C176.797 303.564 176.603 304.39 176.6 305.452H176.668C176.827 305.211 177.016 305.005 177.235 304.834C177.456 304.661 177.701 304.527 177.968 304.434C178.235 304.34 178.517 304.293 178.816 304.293C179.316 304.293 179.773 304.418 180.188 304.668C180.603 304.915 180.935 305.257 181.185 305.695C181.435 306.13 181.56 306.628 181.56 307.191C181.56 307.73 181.439 308.225 181.198 308.674C180.956 309.12 180.617 309.475 180.179 309.739C179.745 310 179.233 310.128 178.645 310.122ZM178.645 309.185C179.003 309.185 179.324 309.096 179.608 308.917C179.895 308.738 180.121 308.497 180.286 308.196C180.453 307.895 180.537 307.56 180.537 307.191C180.537 306.83 180.456 306.502 180.294 306.206C180.135 305.908 179.915 305.671 179.634 305.495C179.355 305.319 179.037 305.23 178.679 305.23C178.409 305.23 178.158 305.284 177.925 305.392C177.692 305.497 177.488 305.642 177.311 305.827C177.138 306.012 177.002 306.223 176.902 306.462C176.803 306.698 176.753 306.946 176.753 307.208C176.753 307.554 176.834 307.878 176.996 308.179C177.161 308.48 177.385 308.723 177.669 308.908C177.956 309.093 178.282 309.185 178.645 309.185Z" fill="black"/>
<path d="M201.344 283.86V273.9" stroke="black"/>
<path d="M199.092 310.003L202.996 302.282V302.213H198.496V301.276H204.087V302.265L200.2 310.003H199.092Z" fill="black"/>
<path d="M224.1 283.86V273.9" stroke="black"/>
<path d="M224.102 310.122C223.516 310.122 222.999 310.019 222.55 309.811C222.104 309.601 221.756 309.313 221.506 308.946C221.256 308.577 221.133 308.157 221.136 307.685C221.133 307.316 221.205 306.975 221.353 306.662C221.501 306.347 221.702 306.084 221.958 305.874C222.217 305.661 222.505 305.526 222.823 305.469V305.418C222.405 305.31 222.073 305.076 221.826 304.715C221.579 304.351 221.457 303.938 221.459 303.475C221.457 303.032 221.569 302.635 221.796 302.286C222.023 301.936 222.336 301.661 222.734 301.459C223.134 301.257 223.59 301.157 224.102 301.157C224.607 301.157 225.059 301.257 225.457 301.459C225.854 301.661 226.167 301.936 226.394 302.286C226.624 302.635 226.741 303.032 226.744 303.475C226.741 303.938 226.614 304.351 226.364 304.715C226.117 305.076 225.789 305.31 225.38 305.418V305.469C225.695 305.526 225.979 305.661 226.232 305.874C226.485 306.084 226.687 306.347 226.837 306.662C226.988 306.975 227.065 307.316 227.067 307.685C227.065 308.157 226.937 308.577 226.684 308.946C226.434 309.313 226.086 309.601 225.64 309.811C225.197 310.019 224.684 310.122 224.102 310.122ZM224.102 309.185C224.496 309.185 224.837 309.121 225.124 308.993C225.411 308.865 225.633 308.685 225.789 308.452C225.945 308.219 226.025 307.946 226.028 307.634C226.025 307.304 225.94 307.013 225.772 306.76C225.604 306.507 225.376 306.309 225.086 306.164C224.799 306.019 224.471 305.946 224.102 305.946C223.729 305.946 223.397 306.019 223.104 306.164C222.815 306.309 222.586 306.507 222.418 306.76C222.253 307.013 222.173 307.304 222.175 307.634C222.173 307.946 222.248 308.219 222.401 308.452C222.557 308.685 222.78 308.865 223.07 308.993C223.36 309.121 223.704 309.185 224.102 309.185ZM224.102 305.043C224.414 305.043 224.691 304.98 224.932 304.855C225.177 304.73 225.369 304.556 225.508 304.331C225.647 304.107 225.718 303.844 225.721 303.543C225.718 303.247 225.648 302.99 225.512 302.772C225.376 302.55 225.187 302.38 224.945 302.26C224.704 302.138 224.423 302.077 224.102 302.077C223.775 302.077 223.489 302.138 223.245 302.26C223.001 302.38 222.812 302.55 222.678 302.772C222.545 302.99 222.479 303.247 222.482 303.543C222.479 303.844 222.546 304.107 222.682 304.331C222.822 304.556 223.013 304.73 223.258 304.855C223.502 304.98 223.783 305.043 224.102 305.043Z" fill="black"/>
<path d="M246.855 283.86V273.9" stroke="black"/>
<path d="M246.793 301.157C247.151 301.159 247.509 301.228 247.867 301.361C248.225 301.495 248.551 301.716 248.847 302.026C249.142 302.333 249.38 302.752 249.559 303.283C249.738 303.814 249.827 304.48 249.827 305.282C249.827 306.057 249.753 306.746 249.605 307.348C249.461 307.948 249.25 308.453 248.975 308.865C248.702 309.277 248.37 309.59 247.978 309.803C247.588 310.016 247.148 310.122 246.657 310.122C246.168 310.122 245.732 310.026 245.348 309.833C244.968 309.637 244.655 309.365 244.411 309.019C244.169 308.669 244.015 308.265 243.946 307.804H244.986C245.08 308.205 245.266 308.536 245.544 308.797C245.826 309.056 246.196 309.185 246.657 309.185C247.33 309.185 247.861 308.891 248.25 308.303C248.642 307.715 248.838 306.884 248.838 305.81H248.77C248.611 306.049 248.422 306.255 248.203 306.428C247.985 306.601 247.742 306.735 247.475 306.828C247.208 306.922 246.924 306.969 246.623 306.969C246.123 306.969 245.664 306.846 245.246 306.598C244.831 306.348 244.499 306.006 244.249 305.571C244.002 305.134 243.878 304.634 243.878 304.071C243.878 303.537 243.998 303.049 244.236 302.605C244.478 302.159 244.816 301.804 245.25 301.54C245.688 301.276 246.202 301.148 246.793 301.157ZM246.793 302.094C246.435 302.094 246.113 302.184 245.826 302.363C245.542 302.539 245.316 302.777 245.148 303.078C244.983 303.377 244.901 303.708 244.901 304.071C244.901 304.435 244.98 304.766 245.14 305.064C245.301 305.36 245.522 305.596 245.8 305.772C246.081 305.945 246.401 306.032 246.759 306.032C247.029 306.032 247.28 305.979 247.513 305.874C247.746 305.766 247.949 305.62 248.123 305.435C248.299 305.247 248.436 305.036 248.536 304.8C248.635 304.561 248.685 304.313 248.685 304.054C248.685 303.713 248.603 303.394 248.438 303.096C248.276 302.797 248.051 302.556 247.765 302.371C247.48 302.186 247.157 302.094 246.793 302.094Z" fill="black"/>
<path d="M269.611 283.86V273.9" stroke="black"/>
<path d="M267.044 301.276V310.003H265.987V302.384H265.936L263.805 303.799V302.725L265.987 301.276H267.044ZM272.4 310.122C271.758 310.122 271.211 309.948 270.759 309.598C270.308 309.246 269.963 308.736 269.724 308.069C269.485 307.398 269.366 306.588 269.366 305.64C269.366 304.696 269.485 303.891 269.724 303.223C269.965 302.553 270.312 302.042 270.764 301.689C271.218 301.334 271.764 301.157 272.4 301.157C273.036 301.157 273.58 301.334 274.032 301.689C274.487 302.042 274.833 302.553 275.072 303.223C275.313 303.891 275.434 304.696 275.434 305.64C275.434 306.588 275.315 307.398 275.076 308.069C274.838 308.736 274.492 309.246 274.041 309.598C273.589 309.948 273.042 310.122 272.4 310.122ZM272.4 309.185C273.036 309.185 273.531 308.878 273.883 308.265C274.235 307.651 274.411 306.776 274.411 305.64C274.411 304.884 274.33 304.24 274.169 303.709C274.009 303.178 273.779 302.773 273.478 302.495C273.18 302.216 272.821 302.077 272.4 302.077C271.769 302.077 271.276 302.388 270.921 303.01C270.566 303.63 270.389 304.506 270.389 305.64C270.389 306.395 270.468 307.037 270.627 307.566C270.786 308.094 271.015 308.496 271.313 308.772C271.615 309.047 271.977 309.185 272.4 309.185Z" fill="black"/>
<path d="M315.122 283.86V273.9" stroke="black"/>
<path d="M312.672 301.276V310.003H311.615V302.384H311.564L309.433 303.799V302.725L311.615 301.276H312.672ZM315.182 310.003V309.236L318.063 306.083C318.401 305.713 318.679 305.392 318.898 305.12C319.117 304.844 319.279 304.586 319.384 304.344C319.492 304.1 319.546 303.844 319.546 303.577C319.546 303.27 319.472 303.005 319.324 302.78C319.179 302.556 318.98 302.382 318.727 302.26C318.475 302.138 318.19 302.077 317.875 302.077C317.54 302.077 317.247 302.147 316.997 302.286C316.75 302.422 316.558 302.614 316.422 302.861C316.288 303.108 316.222 303.398 316.222 303.73H315.216C315.216 303.219 315.334 302.77 315.57 302.384C315.805 301.997 316.127 301.696 316.533 301.48C316.942 301.265 317.401 301.157 317.909 301.157C318.421 301.157 318.874 301.265 319.269 301.48C319.663 301.696 319.973 301.988 320.198 302.354C320.422 302.721 320.534 303.128 320.534 303.577C320.534 303.898 320.476 304.212 320.359 304.519C320.246 304.823 320.047 305.162 319.763 305.537C319.482 305.909 319.091 306.364 318.591 306.901L316.631 308.997V309.066H320.688V310.003H315.182Z" fill="black"/>
<path d="M360.633 283.86V273.9" stroke="black"/>
<path d="M357.966 301.276V310.003H356.91V302.384H356.858L354.728 303.799V302.725L356.91 301.276H357.966ZM360.272 308.213V307.344L364.107 301.276H364.738V302.622H364.312L361.414 307.208V307.276H366.579V308.213H360.272ZM364.38 310.003V307.949V307.544V301.276H365.385V310.003H364.38Z" fill="black"/>
<path d="M406.145 283.86V273.9" stroke="black"/>
<path d="M403.583 301.276V310.003H402.526V302.384H402.475L400.344 303.799V302.725L402.526 301.276H403.583ZM408.991 310.122C408.633 310.117 408.275 310.049 407.917 309.918C407.559 309.787 407.232 309.567 406.937 309.257C406.641 308.945 406.404 308.523 406.225 307.992C406.046 307.458 405.957 306.787 405.957 305.98C405.957 305.208 406.029 304.523 406.174 303.926C406.319 303.327 406.529 302.823 406.805 302.414C407.08 302.002 407.413 301.689 407.802 301.476C408.194 301.263 408.636 301.157 409.127 301.157C409.616 301.157 410.05 301.255 410.431 301.451C410.815 301.644 411.127 301.914 411.369 302.26C411.61 302.607 411.766 303.006 411.837 303.458H410.798C410.701 303.066 410.513 302.74 410.235 302.482C409.957 302.223 409.587 302.094 409.127 302.094C408.451 302.094 407.918 302.388 407.529 302.976C407.143 303.564 406.948 304.39 406.945 305.452H407.013C407.173 305.211 407.361 305.005 407.58 304.834C407.802 304.661 408.046 304.527 408.313 304.434C408.58 304.34 408.863 304.293 409.161 304.293C409.661 304.293 410.119 304.418 410.533 304.668C410.948 304.915 411.281 305.257 411.531 305.695C411.781 306.13 411.906 306.628 411.906 307.191C411.906 307.73 411.785 308.225 411.543 308.674C411.302 309.12 410.962 309.475 410.525 309.739C410.09 310 409.579 310.128 408.991 310.122ZM408.991 309.185C409.349 309.185 409.67 309.096 409.954 308.917C410.241 308.738 410.467 308.497 410.631 308.196C410.799 307.895 410.883 307.56 410.883 307.191C410.883 306.83 410.802 306.502 410.64 306.206C410.481 305.908 410.261 305.671 409.979 305.495C409.701 305.319 409.383 305.23 409.025 305.23C408.755 305.23 408.504 305.284 408.271 305.392C408.038 305.497 407.833 305.642 407.657 305.827C407.484 306.012 407.347 306.223 407.248 306.462C407.148 306.698 407.099 306.946 407.099 307.208C407.099 307.554 407.18 307.878 407.342 308.179C407.506 308.48 407.731 308.723 408.015 308.908C408.302 309.093 408.627 309.185 408.991 309.185Z" fill="black"/>
<path d="M451.656 283.86V273.9" stroke="black"/>
<path d="M449.141 301.276V310.003H448.084V302.384H448.033L445.903 303.799V302.725L448.084 301.276H449.141ZM454.447 310.122C453.861 310.122 453.344 310.019 452.895 309.811C452.449 309.601 452.101 309.313 451.851 308.946C451.601 308.577 451.478 308.157 451.481 307.685C451.478 307.316 451.55 306.975 451.698 306.662C451.846 306.347 452.047 306.084 452.303 305.874C452.562 305.661 452.85 305.526 453.168 305.469V305.418C452.751 305.31 452.418 305.076 452.171 304.715C451.924 304.351 451.802 303.938 451.805 303.475C451.802 303.032 451.914 302.635 452.141 302.286C452.368 301.936 452.681 301.661 453.079 301.459C453.479 301.257 453.935 301.157 454.447 301.157C454.952 301.157 455.404 301.257 455.802 301.459C456.199 301.661 456.512 301.936 456.739 302.286C456.969 302.635 457.086 303.032 457.089 303.475C457.086 303.938 456.959 304.351 456.709 304.715C456.462 305.076 456.134 305.31 455.725 305.418V305.469C456.04 305.526 456.324 305.661 456.577 305.874C456.83 306.084 457.032 306.347 457.182 306.662C457.333 306.975 457.41 307.316 457.413 307.685C457.41 308.157 457.282 308.577 457.029 308.946C456.779 309.313 456.431 309.601 455.985 309.811C455.542 310.019 455.029 310.122 454.447 310.122ZM454.447 309.185C454.841 309.185 455.182 309.121 455.469 308.993C455.756 308.865 455.978 308.685 456.134 308.452C456.29 308.219 456.37 307.946 456.373 307.634C456.37 307.304 456.285 307.013 456.117 306.76C455.949 306.507 455.721 306.309 455.431 306.164C455.144 306.019 454.816 305.946 454.447 305.946C454.074 305.946 453.742 306.019 453.449 306.164C453.16 306.309 452.931 306.507 452.763 306.76C452.599 307.013 452.518 307.304 452.52 307.634C452.518 307.946 452.593 308.219 452.746 308.452C452.903 308.685 453.126 308.865 453.415 308.993C453.705 309.121 454.049 309.185 454.447 309.185ZM454.447 305.043C454.759 305.043 455.036 304.98 455.278 304.855C455.522 304.73 455.714 304.556 455.853 304.331C455.992 304.107 456.063 303.844 456.066 303.543C456.063 303.247 455.993 302.99 455.857 302.772C455.721 302.55 455.532 302.38 455.29 302.26C455.049 302.138 454.768 302.077 454.447 302.077C454.12 302.077 453.834 302.138 453.59 302.26C453.346 302.38 453.157 302.55 453.023 302.772C452.89 302.99 452.824 303.247 452.827 303.543C452.824 303.844 452.891 304.107 453.028 304.331C453.167 304.556 453.359 304.73 453.603 304.855C453.847 304.98 454.128 305.043 454.447 305.043Z" fill="black"/>
<path d="M497.167 283.86V273.9" stroke="black"/>
<path d="M490.688 310.003V309.236L493.569 306.083C493.907 305.713 494.185 305.392 494.404 305.12C494.623 304.844 494.785 304.586 494.89 304.344C494.998 304.1 495.052 303.844 495.052 303.577C495.052 303.27 494.978 303.005 494.83 302.78C494.685 302.556 494.487 302.382 494.234 302.26C493.981 302.138 493.697 302.077 493.381 302.077C493.046 302.077 492.754 302.147 492.504 302.286C492.256 302.422 492.065 302.614 491.928 302.861C491.795 303.108 491.728 303.398 491.728 303.73H490.722C490.722 303.219 490.84 302.77 491.076 302.384C491.312 301.997 491.633 301.696 492.039 301.48C492.448 301.265 492.907 301.157 493.415 301.157C493.927 301.157 494.38 301.265 494.775 301.48C495.17 301.696 495.479 301.988 495.704 302.354C495.928 302.721 496.04 303.128 496.04 303.577C496.04 303.898 495.982 304.212 495.866 304.519C495.752 304.823 495.553 305.162 495.269 305.537C494.988 305.909 494.597 306.364 494.097 306.901L492.137 308.997V309.066H496.194V310.003H490.688ZM500.8 310.122C500.158 310.122 499.612 309.948 499.16 309.598C498.708 309.246 498.363 308.736 498.124 308.069C497.886 307.398 497.766 306.588 497.766 305.64C497.766 304.696 497.886 303.891 498.124 303.223C498.366 302.553 498.712 302.042 499.164 301.689C499.619 301.334 500.164 301.157 500.8 301.157C501.437 301.157 501.981 301.334 502.433 301.689C502.887 302.042 503.234 302.553 503.472 303.223C503.714 303.891 503.835 304.696 503.835 305.64C503.835 306.588 503.715 307.398 503.477 308.069C503.238 308.736 502.893 309.246 502.441 309.598C501.989 309.948 501.442 310.122 500.8 310.122ZM500.8 309.185C501.437 309.185 501.931 308.878 502.283 308.265C502.636 307.651 502.812 306.776 502.812 305.64C502.812 304.884 502.731 304.24 502.569 303.709C502.41 303.178 502.18 302.773 501.879 302.495C501.58 302.216 501.221 302.077 500.8 302.077C500.17 302.077 499.677 302.388 499.322 303.01C498.967 303.63 498.789 304.506 498.789 305.64C498.789 306.395 498.869 307.037 499.028 307.566C499.187 308.094 499.415 308.496 499.714 308.772C500.015 309.047 500.377 309.185 500.8 309.185Z" fill="black"/>
<path d="M542.679 283.86V273.9" stroke="black"/>
<path d="M536.317 310.003V309.236L539.197 306.083C539.535 305.713 539.814 305.392 540.033 305.12C540.251 304.844 540.413 304.586 540.518 304.344C540.626 304.1 540.68 303.844 540.68 303.577C540.68 303.27 540.606 303.005 540.459 302.78C540.314 302.556 540.115 302.382 539.862 302.26C539.609 302.138 539.325 302.077 539.01 302.077C538.675 302.077 538.382 302.147 538.132 302.286C537.885 302.422 537.693 302.614 537.557 302.861C537.423 303.108 537.356 303.398 537.356 303.73H536.351C536.351 303.219 536.469 302.77 536.704 302.384C536.94 301.997 537.261 301.696 537.667 301.48C538.077 301.265 538.535 301.157 539.044 301.157C539.555 301.157 540.008 301.265 540.403 301.48C540.798 301.696 541.108 301.988 541.332 302.354C541.557 302.721 541.669 303.128 541.669 303.577C541.669 303.898 541.611 304.212 541.494 304.519C541.381 304.823 541.182 305.162 540.898 305.537C540.616 305.909 540.226 306.364 539.726 306.901L537.765 308.997V309.066H541.822V310.003H536.317ZM543.582 310.003V309.236L546.463 306.083C546.801 305.713 547.079 305.392 547.298 305.12C547.517 304.844 547.679 304.586 547.784 304.344C547.892 304.1 547.946 303.844 547.946 303.577C547.946 303.27 547.872 303.005 547.724 302.78C547.579 302.556 547.381 302.382 547.128 302.26C546.875 302.138 546.591 302.077 546.275 302.077C545.94 302.077 545.648 302.147 545.398 302.286C545.15 302.422 544.959 302.614 544.822 302.861C544.689 303.108 544.622 303.398 544.622 303.73H543.616C543.616 303.219 543.734 302.77 543.97 302.384C544.206 301.997 544.527 301.696 544.933 301.48C545.342 301.265 545.801 301.157 546.31 301.157C546.821 301.157 547.274 301.265 547.669 301.48C548.064 301.696 548.373 301.988 548.598 302.354C548.822 302.721 548.935 303.128 548.935 303.577C548.935 303.898 548.876 304.212 548.76 304.519C548.646 304.823 548.447 305.162 548.163 305.537C547.882 305.909 547.491 306.364 546.991 306.901L545.031 308.997V309.066H549.088V310.003H543.582Z" fill="black"/>
<path d="M588.19 283.86V273.9" stroke="black"/>
<path d="M581.705 310.003V309.236L584.585 306.083C584.924 305.713 585.202 305.392 585.421 305.12C585.639 304.844 585.801 304.586 585.907 304.344C586.014 304.1 586.068 303.844 586.068 303.577C586.068 303.27 585.995 303.005 585.847 302.78C585.702 302.556 585.503 302.382 585.25 302.26C584.997 302.138 584.713 302.077 584.398 302.077C584.063 302.077 583.77 302.147 583.52 302.286C583.273 302.422 583.081 302.614 582.945 302.861C582.811 303.108 582.745 303.398 582.745 303.73H581.739C581.739 303.219 581.857 302.77 582.093 302.384C582.328 301.997 582.649 301.696 583.056 301.48C583.465 301.265 583.924 301.157 584.432 301.157C584.943 301.157 585.397 301.265 585.791 301.48C586.186 301.696 586.496 301.988 586.72 302.354C586.945 302.721 587.057 303.128 587.057 303.577C587.057 303.898 586.999 304.212 586.882 304.519C586.769 304.823 586.57 305.162 586.286 305.537C586.005 305.909 585.614 306.364 585.114 306.901L583.154 308.997V309.066H587.21V310.003H581.705ZM588.578 308.213V307.344L592.414 301.276H593.044V302.622H592.618L589.72 307.208V307.276H594.885V308.213H588.578ZM592.686 310.003V307.949V307.544V301.276H593.692V310.003H592.686Z" fill="black"/>
<path d="M633.701 283.86V273.9" stroke="black"/>
<path d="M627.228 310.003V309.236L630.108 306.083C630.447 305.713 630.725 305.392 630.944 305.12C631.162 304.844 631.324 304.586 631.429 304.344C631.537 304.1 631.591 303.844 631.591 303.577C631.591 303.27 631.518 303.005 631.37 302.78C631.225 302.556 631.026 302.382 630.773 302.26C630.52 302.138 630.236 302.077 629.921 302.077C629.586 302.077 629.293 302.147 629.043 302.286C628.796 302.422 628.604 302.614 628.468 302.861C628.334 303.108 628.268 303.398 628.268 303.73H627.262C627.262 303.219 627.38 302.77 627.616 302.384C627.851 301.997 628.172 301.696 628.579 301.48C628.988 301.265 629.447 301.157 629.955 301.157C630.466 301.157 630.92 301.265 631.314 301.48C631.709 301.696 632.019 301.988 632.243 302.354C632.468 302.721 632.58 303.128 632.58 303.577C632.58 303.898 632.522 304.212 632.405 304.519C632.292 304.823 632.093 305.162 631.809 305.537C631.527 305.909 631.137 306.364 630.637 306.901L628.677 308.997V309.066H632.733V310.003H627.228ZM637.391 310.122C637.033 310.117 636.675 310.049 636.317 309.918C635.959 309.787 635.633 309.567 635.337 309.257C635.042 308.945 634.804 308.523 634.625 307.992C634.447 307.458 634.357 306.787 634.357 305.98C634.357 305.208 634.429 304.523 634.574 303.926C634.719 303.327 634.929 302.823 635.205 302.414C635.481 302.002 635.813 301.689 636.202 301.476C636.594 301.263 637.036 301.157 637.527 301.157C638.016 301.157 638.451 301.255 638.831 301.451C639.215 301.644 639.527 301.914 639.769 302.26C640.01 302.607 640.167 303.006 640.238 303.458H639.198C639.101 303.066 638.914 302.74 638.635 302.482C638.357 302.223 637.988 302.094 637.527 302.094C636.851 302.094 636.319 302.388 635.929 302.976C635.543 303.564 635.349 304.39 635.346 305.452H635.414C635.573 305.211 635.762 305.005 635.981 304.834C636.202 304.661 636.447 304.527 636.714 304.434C636.981 304.34 637.263 304.293 637.562 304.293C638.062 304.293 638.519 304.418 638.934 304.668C639.349 304.915 639.681 305.257 639.931 305.695C640.181 306.13 640.306 306.628 640.306 307.191C640.306 307.73 640.185 308.225 639.944 308.674C639.702 309.12 639.363 309.475 638.925 309.739C638.491 310 637.979 310.128 637.391 310.122ZM637.391 309.185C637.749 309.185 638.07 309.096 638.354 308.917C638.641 308.738 638.867 308.497 639.032 308.196C639.199 307.895 639.283 307.56 639.283 307.191C639.283 306.83 639.202 306.502 639.04 306.206C638.881 305.908 638.661 305.671 638.38 305.495C638.101 305.319 637.783 305.23 637.425 305.23C637.155 305.23 636.904 305.284 636.671 305.392C636.438 305.497 636.233 305.642 636.057 305.827C635.884 306.012 635.748 306.223 635.648 306.462C635.549 306.698 635.499 306.946 635.499 307.208C635.499 307.554 635.58 307.878 635.742 308.179C635.907 308.48 636.131 308.723 636.415 308.908C636.702 309.093 637.027 309.185 637.391 309.185Z" fill="black"/>
<path d="M679.212 283.86V273.9" stroke="black"/>
<path d="M672.786 310.003V309.236L675.667 306.083C676.005 305.713 676.283 305.392 676.502 305.12C676.721 304.844 676.882 304.586 676.988 304.344C677.096 304.1 677.15 303.844 677.15 303.577C677.15 303.27 677.076 303.005 676.928 302.78C676.783 302.556 676.584 302.382 676.331 302.26C676.078 302.138 675.794 302.077 675.479 302.077C675.144 302.077 674.851 302.147 674.601 302.286C674.354 302.422 674.162 302.614 674.026 302.861C673.892 303.108 673.826 303.398 673.826 303.73H672.82C672.82 303.219 672.938 302.77 673.174 302.384C673.409 301.997 673.73 301.696 674.137 301.48C674.546 301.265 675.005 301.157 675.513 301.157C676.025 301.157 676.478 301.265 676.873 301.48C677.267 301.696 677.577 301.988 677.801 302.354C678.026 302.721 678.138 303.128 678.138 303.577C678.138 303.898 678.08 304.212 677.963 304.519C677.85 304.823 677.651 305.162 677.367 305.537C677.086 305.909 676.695 306.364 676.195 306.901L674.235 308.997V309.066H678.292V310.003H672.786ZM682.847 310.122C682.262 310.122 681.745 310.019 681.296 309.811C680.85 309.601 680.502 309.313 680.252 308.946C680.002 308.577 679.878 308.157 679.881 307.685C679.878 307.316 679.951 306.975 680.098 306.662C680.246 306.347 680.448 306.084 680.703 305.874C680.962 305.661 681.25 305.526 681.569 305.469V305.418C681.151 305.31 680.819 305.076 680.571 304.715C680.324 304.351 680.202 303.938 680.205 303.475C680.202 303.032 680.314 302.635 680.542 302.286C680.769 301.936 681.081 301.661 681.479 301.459C681.88 301.257 682.336 301.157 682.847 301.157C683.353 301.157 683.804 301.257 684.202 301.459C684.6 301.661 684.912 301.936 685.14 302.286C685.37 302.635 685.486 303.032 685.489 303.475C685.486 303.938 685.36 304.351 685.11 304.715C684.863 305.076 684.534 305.31 684.125 305.418V305.469C684.441 305.526 684.725 305.661 684.978 305.874C685.23 306.084 685.432 306.347 685.583 306.662C685.733 306.975 685.81 307.316 685.813 307.685C685.81 308.157 685.682 308.577 685.429 308.946C685.179 309.313 684.831 309.601 684.385 309.811C683.942 310.019 683.429 310.122 682.847 310.122ZM682.847 309.185C683.242 309.185 683.583 309.121 683.87 308.993C684.157 308.865 684.378 308.685 684.534 308.452C684.691 308.219 684.77 307.946 684.773 307.634C684.77 307.304 684.685 307.013 684.517 306.76C684.35 306.507 684.121 306.309 683.831 306.164C683.544 306.019 683.216 305.946 682.847 305.946C682.475 305.946 682.142 306.019 681.85 306.164C681.56 306.309 681.331 306.507 681.164 306.76C680.999 307.013 680.918 307.304 680.921 307.634C680.918 307.946 680.993 308.219 681.147 308.452C681.303 308.685 681.526 308.865 681.816 308.993C682.105 309.121 682.449 309.185 682.847 309.185ZM682.847 305.043C683.159 305.043 683.436 304.98 683.678 304.855C683.922 304.73 684.114 304.556 684.253 304.331C684.392 304.107 684.463 303.844 684.466 303.543C684.463 303.247 684.394 302.99 684.257 302.772C684.121 302.55 683.932 302.38 683.691 302.26C683.449 302.138 683.168 302.077 682.847 302.077C682.52 302.077 682.235 302.138 681.99 302.26C681.746 302.38 681.557 302.55 681.424 302.772C681.29 302.99 681.225 303.247 681.228 303.543C681.225 303.844 681.292 304.107 681.428 304.331C681.567 304.556 681.759 304.73 682.003 304.855C682.248 304.98 682.529 305.043 682.847 305.043Z" fill="black"/>
<path d="M724.724 283.86V273.9" stroke="black"/>
<path d="M721.006 310.122C720.444 310.122 719.942 310.026 719.502 309.833C719.064 309.64 718.716 309.371 718.458 309.027C718.202 308.681 718.063 308.279 718.04 307.821H719.114C719.137 308.103 719.233 308.346 719.404 308.55C719.574 308.752 719.797 308.908 720.073 309.019C720.349 309.13 720.654 309.185 720.989 309.185C721.364 309.185 721.697 309.12 721.986 308.989C722.276 308.858 722.503 308.676 722.668 308.444C722.833 308.211 722.915 307.941 722.915 307.634C722.915 307.313 722.836 307.03 722.677 306.786C722.518 306.539 722.285 306.346 721.978 306.206C721.671 306.067 721.296 305.997 720.853 305.997H720.154V305.06H720.853C721.199 305.06 721.503 304.997 721.765 304.872C722.029 304.747 722.235 304.571 722.383 304.344C722.533 304.117 722.608 303.85 722.608 303.543C722.608 303.247 722.543 302.99 722.412 302.772C722.282 302.553 722.097 302.382 721.858 302.26C721.623 302.138 721.344 302.077 721.023 302.077C720.722 302.077 720.438 302.132 720.171 302.243C719.907 302.351 719.691 302.509 719.523 302.716C719.356 302.921 719.265 303.168 719.251 303.458H718.228C718.245 303 718.383 302.6 718.641 302.256C718.9 301.909 719.238 301.64 719.655 301.446C720.076 301.253 720.537 301.157 721.04 301.157C721.58 301.157 722.043 301.266 722.429 301.485C722.816 301.701 723.113 301.986 723.32 302.341C723.528 302.696 723.631 303.08 723.631 303.492C723.631 303.983 723.502 304.402 723.243 304.749C722.988 305.096 722.64 305.336 722.199 305.469V305.537C722.751 305.628 723.181 305.863 723.491 306.24C723.8 306.615 723.955 307.08 723.955 307.634C723.955 308.108 723.826 308.534 723.567 308.912C723.312 309.287 722.962 309.583 722.519 309.799C722.076 310.015 721.572 310.122 721.006 310.122ZM728.545 310.122C727.903 310.122 727.356 309.948 726.904 309.598C726.452 309.246 726.107 308.736 725.868 308.069C725.63 307.398 725.51 306.588 725.51 305.64C725.51 304.696 725.63 303.891 725.868 303.223C726.11 302.553 726.456 302.042 726.908 301.689C727.363 301.334 727.908 301.157 728.545 301.157C729.181 301.157 729.725 301.334 730.177 301.689C730.631 302.042 730.978 302.553 731.216 303.223C731.458 303.891 731.579 304.696 731.579 305.64C731.579 306.588 731.459 307.398 731.221 308.069C730.982 308.736 730.637 309.246 730.185 309.598C729.733 309.948 729.187 310.122 728.545 310.122ZM728.545 309.185C729.181 309.185 729.675 308.878 730.028 308.265C730.38 307.651 730.556 306.776 730.556 305.64C730.556 304.884 730.475 304.24 730.313 303.709C730.154 303.178 729.924 302.773 729.623 302.495C729.324 302.216 728.965 302.077 728.545 302.077C727.914 302.077 727.421 302.388 727.066 303.01C726.711 303.63 726.533 304.506 726.533 305.64C726.533 306.395 726.613 307.037 726.772 307.566C726.931 308.094 727.16 308.496 727.458 308.772C727.759 309.047 728.121 309.185 728.545 309.185Z" fill="black"/>
<path d="M30.6768 8.29999V273.9" stroke="black"/>
<path d="M23.5986 273.9H30.6765" stroke="black"/>
<path d="M13.9503 273.171C13.3083 273.171 12.7614 272.996 12.3097 272.647C11.858 272.294 11.5128 271.784 11.2742 271.117C11.0355 270.446 10.9162 269.637 10.9162 268.688C10.9162 267.745 11.0355 266.939 11.2742 266.272C11.5157 265.601 11.8622 265.09 12.3139 264.738C12.7685 264.382 13.3139 264.205 13.9503 264.205C14.5867 264.205 15.1307 264.382 15.5824 264.738C16.037 265.09 16.3835 265.601 16.6222 266.272C16.8637 266.939 16.9844 267.745 16.9844 268.688C16.9844 269.637 16.8651 270.446 16.6264 271.117C16.3878 271.784 16.0426 272.294 15.5909 272.647C15.1392 272.996 14.5924 273.171 13.9503 273.171ZM13.9503 272.233C14.5867 272.233 15.081 271.927 15.4333 271.313C15.7855 270.699 15.9617 269.824 15.9617 268.688C15.9617 267.932 15.8807 267.289 15.7188 266.757C15.5597 266.226 15.3296 265.821 15.0284 265.543C14.7301 265.265 14.3708 265.125 13.9503 265.125C13.3196 265.125 12.8267 265.436 12.4716 266.059C12.1165 266.678 11.9389 267.554 11.9389 268.688C11.9389 269.444 12.0185 270.086 12.1776 270.614C12.3367 271.142 12.5654 271.544 12.8637 271.82C13.1648 272.096 13.527 272.233 13.9503 272.233Z" fill="black"/>
<path d="M23.5986 207.5H30.6765" stroke="black"/>
<path d="M14.0132 206.771C13.6552 206.765 13.2973 206.697 12.9393 206.566C12.5813 206.436 12.2546 206.216 11.9592 205.906C11.6637 205.593 11.4265 205.171 11.2475 204.64C11.0686 204.106 10.9791 203.436 10.9791 202.629C10.9791 201.856 11.0515 201.171 11.1964 200.575C11.3413 199.975 11.5515 199.471 11.8271 199.062C12.1027 198.65 12.435 198.338 12.8242 198.125C13.2163 197.912 13.6581 197.805 14.1495 197.805C14.6382 197.805 15.0728 197.903 15.4535 198.099C15.837 198.292 16.1495 198.562 16.391 198.909C16.6325 199.255 16.7887 199.654 16.8598 200.106H15.82C15.7234 199.714 15.5359 199.389 15.2575 199.13C14.9791 198.872 14.6098 198.743 14.1495 198.743C13.4734 198.743 12.9407 199.037 12.5515 199.625C12.1652 200.213 11.9706 201.038 11.9677 202.1H12.0359C12.195 201.859 12.3839 201.653 12.6027 201.483C12.8242 201.309 13.0686 201.176 13.3356 201.082C13.6027 200.988 13.8853 200.941 14.1836 200.941C14.6836 200.941 15.141 201.066 15.5558 201.316C15.9706 201.564 16.3029 201.906 16.5529 202.343C16.8029 202.778 16.9279 203.277 16.9279 203.839C16.9279 204.379 16.8072 204.873 16.5657 205.322C16.3242 205.768 15.9848 206.123 15.5473 206.387C15.1126 206.649 14.6012 206.777 14.0132 206.771ZM14.0132 205.833C14.3711 205.833 14.6921 205.744 14.9762 205.565C15.2632 205.386 15.489 205.146 15.6538 204.845C15.8214 204.544 15.9052 204.208 15.9052 203.839C15.9052 203.478 15.8242 203.15 15.6623 202.855C15.5032 202.556 15.2831 202.319 15.0018 202.143C14.7234 201.967 14.4052 201.879 14.0473 201.879C13.7774 201.879 13.5259 201.933 13.293 202.041C13.06 202.146 12.8555 202.291 12.6794 202.475C12.5061 202.66 12.3697 202.872 12.2703 203.11C12.1708 203.346 12.1211 203.595 12.1211 203.856C12.1211 204.203 12.2021 204.527 12.364 204.828C12.5288 205.129 12.7532 205.372 13.0373 205.556C13.3242 205.741 13.6495 205.833 14.0132 205.833Z" fill="black"/>
<path d="M23.5986 141.1H30.6765" stroke="black"/>
<path d="M8.8284 131.524V140.252H7.77159V132.632H7.72045L5.58977 134.047V132.973L7.77159 131.524H8.8284ZM11.3383 140.252V139.485L14.219 136.331C14.5571 135.962 14.8355 135.641 15.0543 135.368C15.273 135.092 15.4349 134.834 15.5401 134.592C15.648 134.348 15.702 134.092 15.702 133.825C15.702 133.519 15.6281 133.253 15.4804 133.029C15.3355 132.804 15.1366 132.631 14.8838 132.509C14.631 132.387 14.3469 132.325 14.0315 132.325C13.6963 132.325 13.4037 132.395 13.1537 132.534C12.9065 132.671 12.7148 132.862 12.5784 133.11C12.4449 133.357 12.3781 133.646 12.3781 133.979H11.3724C11.3724 133.467 11.4903 133.019 11.7261 132.632C11.9619 132.246 12.2829 131.945 12.6892 131.729C13.0983 131.513 13.5571 131.405 14.0656 131.405C14.577 131.405 15.0301 131.513 15.425 131.729C15.8199 131.945 16.1295 132.236 16.354 132.602C16.5784 132.969 16.6906 133.377 16.6906 133.825C16.6906 134.146 16.6324 134.46 16.5159 134.767C16.4023 135.071 16.2034 135.411 15.9193 135.786C15.6381 136.158 15.2474 136.612 14.7474 137.149L12.7872 139.246V139.314H16.844V140.252H11.3383Z" fill="black"/>
<path d="M23.5986 74.7H30.6765" stroke="black"/>
<path d="M8.6995 65.1243V73.8516H7.64268V66.2322H7.59154L5.46086 67.647V66.5732L7.64268 65.1243H8.6995ZM14.0049 73.9709C13.4197 73.9709 12.9026 73.8672 12.4538 73.6598C12.0077 73.4496 11.6597 73.1612 11.4097 72.7947C11.1597 72.4254 11.0361 72.005 11.039 71.5334C11.0361 71.1641 11.1086 70.8232 11.2563 70.5107C11.404 70.1953 11.6057 69.9325 11.8614 69.7223C12.12 69.5092 12.4083 69.3743 12.7265 69.3175V69.2663C12.3089 69.1584 11.9765 68.924 11.7293 68.5632C11.4822 68.1996 11.36 67.7862 11.3629 67.3232C11.36 66.88 11.4722 66.4837 11.6995 66.1342C11.9268 65.7848 12.2393 65.5092 12.637 65.3075C13.0376 65.1058 13.4935 65.005 14.0049 65.005C14.5106 65.005 14.9623 65.1058 15.36 65.3075C15.7577 65.5092 16.0702 65.7848 16.2975 66.1342C16.5276 66.4837 16.6441 66.88 16.6469 67.3232C16.6441 67.7862 16.5177 68.1996 16.2677 68.5632C16.0205 68.924 15.6924 69.1584 15.2833 69.2663V69.3175C15.5986 69.3743 15.8827 69.5092 16.1356 69.7223C16.3884 69.9325 16.5901 70.1953 16.7407 70.5107C16.8913 70.8232 16.968 71.1641 16.9708 71.5334C16.968 72.005 16.8401 72.4254 16.5873 72.7947C16.3373 73.1612 15.9893 73.4496 15.5432 73.6598C15.1001 73.8672 14.5873 73.9709 14.0049 73.9709ZM14.0049 73.0334C14.3998 73.0334 14.7407 72.9695 15.0276 72.8416C15.3146 72.7138 15.5361 72.5334 15.6924 72.3004C15.8486 72.0675 15.9282 71.7947 15.931 71.4822C15.9282 71.1527 15.843 70.8615 15.6754 70.6087C15.5077 70.3558 15.279 70.157 14.9893 70.0121C14.7023 69.8672 14.3742 69.7947 14.0049 69.7947C13.6327 69.7947 13.3004 69.8672 13.0077 70.0121C12.718 70.157 12.4893 70.3558 12.3217 70.6087C12.1569 70.8615 12.0759 71.1527 12.0788 71.4822C12.0759 71.7947 12.1512 72.0675 12.3046 72.3004C12.4609 72.5334 12.6839 72.7138 12.9736 72.8416C13.2634 72.9695 13.6072 73.0334 14.0049 73.0334ZM14.0049 68.8913C14.3174 68.8913 14.5944 68.8288 14.8359 68.7038C15.0802 68.5788 15.2719 68.4041 15.4111 68.1797C15.5504 67.9553 15.6214 67.6925 15.6242 67.3913C15.6214 67.0959 15.5518 66.8388 15.4154 66.62C15.279 66.3984 15.0901 66.228 14.8486 66.1087C14.6072 65.9865 14.3259 65.9254 14.0049 65.9254C13.6782 65.9254 13.3927 65.9865 13.1484 66.1087C12.904 66.228 12.7151 66.3984 12.5816 66.62C12.4481 66.8388 12.3827 67.0959 12.3856 67.3913C12.3827 67.6925 12.4495 67.9553 12.5859 68.1797C12.7251 68.4041 12.9168 68.5788 13.1611 68.7038C13.4055 68.8288 13.6867 68.8913 14.0049 68.8913Z" fill="black"/>
<path d="M23.5986 8.29999H30.6765" stroke="black"/>
<path d="M3.82654 14.4236V13.6565L6.70722 10.5031C7.04529 10.1338 7.32369 9.81279 7.54244 9.54006C7.76119 9.26449 7.92313 9.00597 8.02824 8.76449C8.13619 8.52017 8.19017 8.26449 8.19017 7.99745C8.19017 7.69063 8.11631 7.425 7.96858 7.20057C7.82369 6.97614 7.62483 6.80285 7.37199 6.68069C7.11915 6.55853 6.83506 6.49745 6.51972 6.49745C6.18449 6.49745 5.89188 6.56705 5.64188 6.70625C5.39472 6.84262 5.20296 7.03438 5.06659 7.28154C4.93307 7.5287 4.86631 7.81847 4.86631 8.15086H3.86063C3.86063 7.63949 3.97852 7.19063 4.21432 6.80427C4.45011 6.4179 4.77114 6.11677 5.17739 5.90086C5.58648 5.68495 6.04529 5.57699 6.55381 5.57699C7.06517 5.57699 7.5183 5.68495 7.91318 5.90086C8.30807 6.11677 8.61773 6.40796 8.84216 6.77444C9.06659 7.14091 9.17881 7.54858 9.17881 7.99745C9.17881 8.31847 9.12057 8.63239 9.00409 8.93921C8.89046 9.24319 8.69159 9.58267 8.4075 9.95767C8.12625 10.3298 7.73563 10.7844 7.23563 11.3213L5.2754 13.4179V13.4861H9.33222V14.4236H3.82654ZM10.7001 12.6338V11.7645L14.5353 5.69631H15.166V7.0429H14.7399L11.8422 11.6281V11.6963H17.0069V12.6338H10.7001ZM14.8081 14.4236V12.3696V11.9648V5.69631H15.8138V14.4236H14.8081Z" fill="black"/>
<path d="M30.6768 273.9H736.102" stroke="#CCCCCC"/>
<path d="M30.6768 207.5H736.102" stroke="#CCCCCC"/>
<path d="M30.6768 141.1H736.102" stroke="#CCCCCC"/>
<path d="M30.6768 74.7H736.102" stroke="#CCCCCC"/>
<path d="M30.6768 8.29999H736.102" stroke="#CCCCCC"/>
<path d="M42.0547 8.29999V273.9" stroke="#CCCCCC"/>
<path d="M64.8101 8.29999V273.9" stroke="#CCCCCC"/>
<path d="M87.5659 8.29999V273.9" stroke="#CCCCCC"/>
<path d="M110.321 8.29999V273.9" stroke="#CCCCCC"/>
<path d="M133.077 8.29999V273.9" stroke="#CCCCCC"/>
<path d="M155.833 8.29999V273.9" stroke="#CCCCCC"/>
<path d="M178.588 8.29999V273.9" stroke="#CCCCCC"/>
<path d="M201.344 8.29999V273.9" stroke="#CCCCCC"/>
<path d="M224.1 8.29999V273.9" stroke="#CCCCCC"/>
<path d="M246.855 8.29999V273.9" stroke="#CCCCCC"/>
<path d="M269.611 8.29999V273.9" stroke="#CCCCCC"/>
<path d="M315.123 8.29999V273.9" stroke="#CCCCCC"/>
<path d="M360.634 8.29999V273.9" stroke="#CCCCCC"/>
<path d="M406.145 8.29999V273.9" stroke="#CCCCCC"/>
<path d="M451.656 8.29999V273.9" stroke="#CCCCCC"/>
<path d="M497.167 8.29999V273.9" stroke="#CCCCCC"/>
<path d="M542.679 8.29999V273.9" stroke="#CCCCCC"/>
<path d="M588.19 8.29999V273.9" stroke="#CCCCCC"/>
<path d="M633.702 8.29999V273.9" stroke="#CCCCCC"/>
<path d="M679.213 8.29999V273.9" stroke="#CCCCCC"/>
<path d="M724.724 8.29999V273.9" stroke="#CCCCCC"/>
<path d="M30.6768 8.29999V273.9" stroke="#CCCCCC"/>
<path d="M736.102 8.29999V273.9" stroke="#CCCCCC"/>
<path d="M32.9521 196.433H50.6468V273.9H32.9521V196.433Z" fill="#114E6C"/>
<path d="M55.708 196.433H73.4026V273.9H55.708V196.433Z" fill="#114E6C"/>
<path d="M78.4634 107.9H96.158V273.9H78.4634V107.9Z" fill="#114E6C"/>
<path d="M101.219 74.7H118.914V273.9H101.219V74.7Z" fill="#114E6C"/>
<path d="M123.975 85.7667H141.669V273.9H123.975V85.7667Z" fill="#114E6C"/>
<path d="M146.73 196.433H164.425V273.9H146.73V196.433Z" fill="#114E6C"/>
<path d="M169.486 185.367H187.18V273.9H169.486V185.367Z" fill="#114E6C"/>
<path d="M192.242 141.1H209.936V273.9H192.242V141.1Z" fill="#114E6C"/>
<path d="M214.998 96.8333H232.692V273.9H214.998V96.8333Z" fill="#114E6C"/>
<path d="M237.753 96.8333H255.448V273.9H237.753V96.8333Z" fill="#114E6C"/>
<path d="M260.509 130.033H278.203V273.9H260.509V130.033Z" fill="#114E6C"/>
<path d="M283.264 218.567H300.959V273.9H283.264V218.567Z" fill="#114E6C"/>
<path d="M328.775 41.5H346.47V273.9H328.775V41.5Z" fill="#114E6C"/>
<path d="M351.531 174.3H369.226V273.9H351.531V174.3Z" fill="#114E6C"/>
<path d="M374.287 63.6333H391.982V273.9H374.287V63.6333Z" fill="#114E6C"/>
<path d="M397.042 185.367H414.737V273.9H397.042V185.367Z" fill="#114E6C"/>
<path d="M419.798 262.833H437.493V273.9H419.798V262.833Z" fill="#114E6C"/>
<path d="M442.554 185.367H460.248V273.9H442.554V185.367Z" fill="#114E6C"/>
<path d="M465.31 152.167H483.004V273.9H465.31V152.167Z" fill="#114E6C"/>
<path d="M488.065 262.833H505.76V273.9H488.065V262.833Z" fill="#114E6C"/>
<path d="M510.821 130.033H528.515V273.9H510.821V130.033Z" fill="#114E6C"/>
<path d="M533.577 141.1H551.271V273.9H533.577V141.1Z" fill="#114E6C"/>
<path d="M556.332 152.167H574.027V273.9H556.332V152.167Z" fill="#114E6C"/>
<path d="M579.088 41.5H596.783V273.9H579.088V41.5Z" fill="#114E6C"/>
<path d="M601.843 41.5H619.538V273.9H601.843V41.5Z" fill="#114E6C"/>
<path d="M624.599 96.8333H642.294V273.9H624.599V96.8333Z" fill="#114E6C"/>
<path d="M647.354 251.767H665.049V273.9H647.354V251.767Z" fill="#114E6C"/>
<path d="M670.11 107.9H687.805V273.9H670.11V107.9Z" fill="#114E6C"/>
<path d="M692.866 185.367H710.561V273.9H692.866V185.367Z" fill="#114E6C"/>
<path d="M715.622 229.633H733.316V273.9H715.622V229.633Z" fill="#114E6C"/>
</svg>
