<svg width="34" height="34" viewBox="0 0 34 34" fill="none" xmlns="http://www.w3.org/2000/svg">
<g clip-path="url(#clip0_38_278)">
<path d="M2 17.3059C2 13.8732 2 12.1569 2.7788 10.7341C3.5576 9.31132 4.98042 8.42826 7.82604 6.66219L10.826 4.8003C13.8341 2.93343 15.3381 2 17 2C18.6619 2 20.1659 2.93343 23.174 4.8003L26.174 6.66218C29.0196 8.42826 30.4424 9.31132 31.2212 10.7341C32 12.1569 32 13.8732 32 17.3059V19.5875C32 25.4387 32 28.3644 30.2426 30.1821C28.4853 32 25.6568 32 20 32H14C8.34314 32 5.51473 32 3.75736 30.1821C2 28.3644 2 25.4387 2 19.5875V17.3059Z" stroke="#448FFF" stroke-width="3"/>
<path d="M21.5 26H12.5" stroke="#448FFF" stroke-width="3" stroke-linecap="round"/>
</g>
<defs>
<clipPath id="clip0_38_278">
<rect width="34" height="34" fill="white"/>
</clipPath>
</defs>
</svg>
