<svg width="34" height="34" viewBox="0 0 34 34" fill="none" xmlns="http://www.w3.org/2000/svg">
<g clip-path="url(#clip0_38_68)">
<path d="M14.1876 12.3126C14.1876 10.7593 15.4469 9.50006 17.0001 9.50006C18.5534 9.50006 19.8126 10.7593 19.8126 12.3126C19.8126 13.3437 19.2576 14.2453 18.4302 14.7349C17.7171 15.1567 17.0001 15.7966 17.0001 16.6251V18.5001" stroke="#1C1C1C" stroke-width="3" stroke-linecap="round"/>
<path d="M17 24.4999C17.8284 24.4999 18.5 23.8284 18.5 22.9999C18.5 22.1715 17.8284 21.4999 17 21.4999C16.1716 21.4999 15.5 22.1715 15.5 22.9999C15.5 23.8284 16.1716 24.4999 17 24.4999Z" fill="#1C1C1C"/>
<path d="M9.5 4.00673C11.7063 2.73046 14.2679 2 17 2C25.2842 2 32 8.71572 32 17C32 25.2842 25.2842 32 17 32C8.71572 32 2 25.2842 2 17C2 14.2679 2.73046 11.7063 4.00673 9.5" stroke="#1C1C1C" stroke-width="3" stroke-linecap="round"/>
</g>
<defs>
<clipPath id="clip0_38_68">
<rect width="34" height="34" fill="white"/>
</clipPath>
</defs>
</svg>
