<svg width="40" height="46" viewBox="0 0 40 46" fill="none" xmlns="http://www.w3.org/2000/svg">
<path d="M35.1119 23.0654C39.1013 27.4394 40.8881 31.7426 39.3379 34.5018C37.7912 37.2538 33.2816 37.8216 27.615 36.4721C25.9187 42.2362 23.1715 46 20.0625 46C16.9499 46 14.2045 42.2239 12.5116 36.4438C6.78243 37.8322 2.21889 37.2751 0.660008 34.5018C-0.89017 31.7426 0.898363 27.4341 4.88777 23.0548C0.821811 18.6402 -1.00848 14.2821 0.555618 11.5018C2.12145 8.71432 6.72849 8.16426 12.4977 9.57921C14.1923 3.78676 16.9482 0 20.0642 0C23.1785 0 25.9256 3.77438 27.6185 9.55268C33.3338 8.1731 37.8904 8.73201 39.4475 11.5018C41.0064 14.2839 39.1744 18.6455 35.1119 23.0654ZM2.16843 12.4604C0.971435 14.5899 2.62252 18.0813 6.11782 21.7725C7.54273 20.3594 9.18338 18.9568 11.0102 17.609C11.2329 15.3699 11.5721 13.2457 12.0367 11.3125C7.15301 10.0373 3.37064 10.3221 2.16843 12.4604ZM10.8136 20.1011C9.56092 21.0704 8.41786 22.0538 7.3931 23.0354C8.43178 24.0223 9.55222 25.0128 10.8205 25.9891C10.7684 25.0075 10.7318 24.0152 10.7318 23C10.7318 22.0166 10.7631 21.0509 10.8136 20.1011ZM11.0084 28.4723C9.1799 27.1299 7.54447 25.7309 6.11434 24.323C2.68168 27.9806 1.088 31.4313 2.27456 33.5431C3.46981 35.6673 7.21216 35.9627 12.0523 34.714C11.5878 32.7914 11.2294 30.7009 11.0084 28.4723ZM27.1122 29.7829C26.3362 30.3011 25.5429 30.8105 24.7165 31.3004C23.8779 31.7974 23.0393 32.2538 22.2042 32.6889C23.636 33.3079 25.0366 33.8474 26.3658 34.2612C26.6772 32.8746 26.9191 31.3623 27.1122 29.7829ZM20.0607 44.0827C22.4425 44.0827 24.5564 40.9256 25.9239 36.0228C24.0362 35.471 22.0424 34.7034 20.0103 33.7695C18.0147 34.691 16.0626 35.4321 14.2045 35.9857C15.5685 40.9009 17.6789 44.0827 20.0607 44.0827ZM13.7748 34.217C15.0657 33.8084 16.4158 33.3008 17.8042 32.6995C16.9656 32.2626 16.1218 31.801 15.2797 31.3022C14.4985 30.8371 13.7469 30.3595 13.011 29.8696C13.2006 31.4207 13.4703 32.8516 13.7748 34.217ZM13.0145 16.2012C13.7817 15.69 14.5681 15.1877 15.3841 14.7013C16.1896 14.222 16.9952 13.7816 17.799 13.3607C16.4054 12.7558 15.0413 12.2216 13.7434 11.8095C13.4407 13.1714 13.2058 14.6553 13.0145 16.2012ZM20.0607 1.91726C17.6719 1.91726 15.5476 5.10443 14.1819 10.0426C16.0383 10.598 17.9938 11.3603 19.9859 12.2835C22.025 11.3337 24.0188 10.575 25.9169 10.0125C24.5529 5.10089 22.4443 1.91726 20.0607 1.91726ZM26.3502 11.7777C25.014 12.2004 23.6186 12.7239 22.1781 13.3536C22.9871 13.7763 23.7996 14.2202 24.6103 14.7031C25.4837 15.2213 26.3188 15.7608 27.1348 16.3091C26.9434 14.6907 26.6668 13.1962 26.3502 11.7777ZM27.3749 18.7622C26.2092 17.938 24.9774 17.1333 23.6761 16.3639C22.4304 15.6246 21.1951 14.979 19.9737 14.3759C18.768 14.9737 17.5449 15.637 16.3184 16.3639C15.0779 17.0979 13.8931 17.8655 12.7778 18.6473C12.67 20.0569 12.5969 21.5002 12.5969 23.0018C12.5969 24.5193 12.6578 25.9962 12.7657 27.4217C13.8565 28.184 15.0083 28.9286 16.2122 29.6432C17.4927 30.402 18.7628 31.0652 20.019 31.6807C21.2595 31.0688 22.5191 30.3913 23.7804 29.6432C25.0314 28.9021 26.2197 28.131 27.3453 27.3404C27.4515 25.936 27.5263 24.4981 27.5263 23.0018C27.5263 21.5479 27.4741 20.1312 27.3749 18.7622ZM37.7216 33.5431C38.9082 31.4349 37.3006 27.9895 33.8749 24.3407C32.4813 25.7096 30.8859 27.068 29.1147 28.375C28.892 30.6425 28.5476 32.795 28.0743 34.7494C32.8519 35.9609 36.5385 35.6479 37.7216 33.5431ZM29.3113 25.883C30.5101 24.9526 31.6096 24.0082 32.6013 23.069C31.6061 22.1139 30.5327 21.1535 29.3183 20.2072C29.3618 21.1252 29.3931 22.0538 29.3931 23C29.3914 23.9799 29.36 24.9385 29.3113 25.883ZM37.826 12.4604C36.6325 10.3397 32.9023 10.0391 28.0743 11.2825C28.5493 13.2598 28.9164 15.4194 29.1356 17.7222C30.9085 19.0399 32.4935 20.4106 33.8818 21.7885C37.3841 18.0901 39.0265 14.5934 37.826 12.4604ZM20.3461 26.647C18.2983 26.647 16.6385 24.9438 16.6385 22.8408C16.6385 20.7379 18.2983 19.0346 20.3461 19.0346C22.3921 19.0346 24.0519 20.7396 24.0519 22.8408C24.0519 24.9456 22.3921 26.647 20.3461 26.647Z" fill="#448FFF"/>
</svg>
