<svg width="34" height="34" viewBox="0 0 34 34" fill="none" xmlns="http://www.w3.org/2000/svg">
<g clip-path="url(#clip0_38_56)">
<path d="M20.3333 23.6667H26.6667C28.5335 23.6667 29.467 23.6667 30.18 23.3033C30.8072 22.9838 31.3172 22.4738 31.6367 21.8467C32 21.1337 32 20.2002 32 18.3333V7.33333C32 5.4665 32 4.53307 31.6367 3.82003C31.3172 3.19282 30.8072 2.68288 30.18 2.36332C29.467 2 28.5335 2 26.6667 2H12.3333C10.4665 2 9.53307 2 8.82003 2.36332C8.19282 2.68288 7.68288 3.19282 7.36332 3.82003C7.0223 4.48932 7.00137 5.35275 7.00008 7M27 7L18.6667 15.3333L13.6667 10.3333M27 7V12M27 7H22M12 17C12 18.841 10.5076 20.3333 8.66667 20.3333C6.82572 20.3333 5.33333 18.841 5.33333 17C5.33333 15.159 6.82572 13.6667 8.66667 13.6667C10.5076 13.6667 12 15.159 12 17ZM8.66667 25.3333C10.2166 25.3333 10.9916 25.3333 11.6274 25.5037C13.3529 25.966 14.7007 27.3138 15.163 29.0392C15.3333 29.675 15.3333 30.45 15.3333 32H2C2 30.45 2 29.675 2.17037 29.0392C2.6327 27.3138 3.98045 25.966 5.7059 25.5037C6.34173 25.3333 7.11672 25.3333 8.66667 25.3333Z" stroke="#1C1C1C" stroke-width="3" stroke-linecap="round" stroke-linejoin="round"/>
</g>
<defs>
<clipPath id="clip0_38_56">
<rect width="34" height="34" fill="white"/>
</clipPath>
</defs>
</svg>
