<svg width="10" height="10" viewBox="0 0 10 10" fill="none" xmlns="http://www.w3.org/2000/svg">
<path d="M9.43188 0.000154452C9.28558 0.0036135 9.14657 0.0647465 9.04513 0.170236L5 4.21537L0.954865 0.170236C0.903176 0.117103 0.841362 0.0748682 0.773075 0.0460275C0.704787 0.0171868 0.631412 0.00232545 0.557285 0.0023211C0.446944 0.00235012 0.339118 0.0352846 0.247593 0.0969152C0.156069 0.158546 0.0850043 0.246072 0.0434839 0.348303C0.00196357 0.450534 -0.00812538 0.562825 0.0145071 0.670819C0.0371396 0.778814 0.0914646 0.877605 0.170538 0.954564L4.21567 4.9997L0.170538 9.04483C0.117304 9.09594 0.074804 9.15716 0.0455257 9.2249C0.0162474 9.29264 0.000779773 9.36554 2.87297e-05 9.43933C-0.000722313 9.51313 0.0132587 9.58633 0.0411522 9.65465C0.0690457 9.72297 0.110291 9.78504 0.162473 9.83722C0.214655 9.88941 0.276725 9.93065 0.345047 9.95855C0.413369 9.98644 0.48657 10.0004 0.560363 9.99967C0.634156 9.99892 0.707058 9.98345 0.774798 9.95417C0.842538 9.92489 0.903755 9.88239 0.954865 9.82916L5 5.78403L9.04513 9.82916C9.09624 9.88239 9.15746 9.92489 9.2252 9.95417C9.29294 9.98345 9.36584 9.99892 9.43964 9.99967C9.51343 10.0004 9.58663 9.98644 9.65495 9.95855C9.72328 9.93065 9.78534 9.88941 9.83753 9.83722C9.88971 9.78504 9.93095 9.72297 9.95885 9.65465C9.98674 9.58633 10.0007 9.51313 9.99997 9.43933C9.99922 9.36554 9.98375 9.29264 9.95447 9.2249C9.9252 9.15716 9.8827 9.09594 9.82946 9.04483L5.78433 4.9997L9.82946 0.954564C9.91001 0.877104 9.96529 0.77712 9.98806 0.66771C10.0108 0.5583 10 0.444566 9.95703 0.341406C9.91406 0.238246 9.84093 0.150471 9.74722 0.0895795C9.65352 0.0286876 9.5436 -0.00248201 9.43188 0.000154452Z" fill="#7C7C7C"/>
</svg>
